<?xml version="1.0" encoding="UTF-8"?>
<svg id="Capa_2" data-name="Capa 2" xmlns="http://www.w3.org/2000/svg" viewBox="0 0 1312.36 70.07">
  <defs>
    <style>
      .cls-1 {
        fill: #010101;
      }

      .cls-2 {
        fill: #fff;
      }

      .cls-3 {
        fill: #cecece;
      }

      .cls-4 {
        fill: #20201d;
      }

      .cls-5 {
        fill: #828181;
      }
    </style>
  </defs>
  <g id="Capa_1-2" data-name="Capa 1">
    <g>
      <g>
        <path d="M428.15,22.74V4.76h4.2v13.97h5.46V4.76h4.27v14h.4c1.18,0,2.35,0,3.53,0,1.01,0,1.55-.53,1.56-1.54,0-4,0-8.01,0-12.01v-.44h4.2v.37c0,4.11,0,8.21,0,12.32,0,2.62-1.96,4.9-4.56,5.29-.11.02-.23.01-.34.01-6.13,0-12.26,0-18.39,0-.1,0-.2,0-.31-.01Z"/>
        <path d="M270.86,11.79c0,.16.02.32.02.47,0,1.72,0,3.44,0,5.16,0,2.66-1.93,4.9-4.57,5.32-.18.03-.36.02-.54.02-3.51,0-7.01,0-10.52,0-1.97,0-3.44-.91-4.51-2.5-.57-.85-.82-1.81-.82-2.83,0-2.34,0-4.68,0-7.03,0-3.07,2.46-5.62,5.53-5.64,4.98-.03,9.96,0,14.93,0,.07,0,.13,0,.23.02v4.21h-.42c-4.81,0-9.62,0-14.42,0-.95,0-1.65.69-1.65,1.63,0,2.18,0,4.37,0,6.55,0,1,.61,1.59,1.61,1.59,3.13,0,6.27,0,9.4,0,.98,0,1.54-.55,1.55-1.53,0-.41,0-.81,0-1.27h-6.01v-4.17h10.19Z"/>
        <path d="M407.99,17.28v5.45h-4.15c0-.13,0-.26,0-.39,0-4.07,0-8.14,0-12.22,0-3.07,2.46-5.59,5.54-5.62,3.22-.02,6.45-.02,9.67,0,3.16.02,5.64,2.54,5.64,5.7,0,4.04,0,8.08,0,12.11v.42h-4.21v-5.46h-12.48ZM407.98,12.95h12.48c0-.9,0-1.77,0-2.64,0-.92-.61-1.54-1.52-1.54-1.12,0-2.24,0-3.36,0-2.05,0-4.09,0-6.14,0-.8,0-1.42.52-1.45,1.27-.03.96,0,1.92,0,2.91Z"/>
        <path d="M347.42,22.74h-4.08v-5.46h-12.69v5.45h-4.09c0-.1-.02-.22-.02-.34,0-4.05,0-8.1,0-12.15,0-2.76,1.72-5.02,4.27-5.62.37-.09.76-.13,1.14-.13,3.29,0,6.58.03,9.87-.02,2.45-.04,4.84,1.73,5.44,4.39.09.42.14.85.14,1.28.01,4.06,0,8.12,0,12.18,0,.13,0,.27,0,.42ZM343.32,12.96c0-.14.02-.25.02-.36,0-.76,0-1.51,0-2.27,0-.99-.62-1.61-1.61-1.61-3.17,0-6.33,0-9.5,0-1.02,0-1.58.55-1.59,1.56,0,.8,0,1.61,0,2.41,0,.09.02.17.03.27h12.64Z"/>
        <path d="M286.11,22.76v-4.01h.46c4.36,0,8.71,0,13.07,0,.54,0,1.01-.14,1.34-.59.61-.85.09-2.06-.95-2.21-.13-.02-.27-.02-.41-.02-2.79,0-5.59,0-8.38,0-2.61,0-4.72-1.47-5.5-3.84-1.18-3.55,1.52-7.34,5.27-7.35,4.28-.01,8.55,0,12.83,0,.1,0,.2.01.31.02v4.17c-.14,0-.28.02-.42.02-4.16,0-8.33,0-12.49,0-.86,0-1.49.53-1.55,1.3-.06.81.59,1.49,1.45,1.5.9.01,1.81,0,2.71,0,1.99,0,3.98-.02,5.97,0,2.17.03,3.83,1.02,4.87,2.91,1,1.83,1.01,3.71-.05,5.53-.83,1.43-2.14,2.23-3.75,2.55-.09.02-.18.02-.27.02-4.75,0-9.5,0-14.25,0h-.26Z"/>
        <path d="M355.03,17.27v5.46h-4.26V4.73h.37c4.54,0,9.07,0,13.61,0,2.85,0,5.28,2.25,5.46,5.09.07,1.02.06,2.07-.1,3.07-.24,1.48-1.11,2.63-2.36,3.46-.23.15-.26.26-.15.51.8,1.8,1.59,3.6,2.37,5.4.07.15.13.31.21.5-.96,0-1.86,0-2.76,0-.49,0-.97-.01-1.46,0-.2,0-.29-.07-.37-.25-.74-1.66-1.48-3.32-2.22-4.99-.09-.2-.19-.29-.42-.29-2.53,0-5.07,0-7.6,0-.1,0-.2.01-.32.02ZM355.04,12.98h.38c3.02,0,6.04,0,9.06,0,.92,0,1.64-.73,1.65-1.65,0-.27,0-.54,0-.81,0-.93-.65-1.57-1.59-1.57-3.02,0-6.04,0-9.06,0-.14,0-.29,0-.44,0v4.04Z"/>
        <path d="M381.47,4.73h.4c4.56,0,9.12,0,13.68,0,2.49,0,4.84,1.97,5.28,4.49.21,1.2.21,2.42,0,3.61-.27,1.54-1.15,2.7-2.44,3.57-.06.04-.13.09-.22.15.9,2.05,1.79,4.1,2.71,6.18-.12.01-.2.03-.28.03-1.3,0-2.6,0-3.9,0-.23,0-.33-.08-.42-.28-.73-1.65-1.47-3.3-2.21-4.95-.07-.16-.13-.29-.35-.28-2.61,0-5.23,0-7.84,0-.03,0-.07.01-.14.02v5.46h-4.26V4.73ZM385.72,12.96c.14,0,.24.02.34.02,3.07,0,6.15,0,9.22,0,.78,0,1.53-.75,1.53-1.52,0-.29,0-.59,0-.88,0-1.03-.6-1.64-1.64-1.64-2.68,0-5.36,0-8.04,0-.38,0-.77-.01-1.15,0-.09,0-.25.13-.25.2-.02,1.25-.01,2.51-.01,3.8Z"/>
        <path d="M317.63,22.75h-4.18v-.43c0-4.32,0-8.64,0-12.96,0-.32-.08-.42-.41-.42-2,.02-4,0-6.01,0-.18,0-.36,0-.56,0v-4.19h18.17v4.17c-.13,0-.26.02-.39.02-2.06,0-4.12,0-6.18,0q-.47,0-.47.48c0,4.29,0,8.57,0,12.86v.46Z"/>
        <path d="M274.88,11.79c.13,0,.24-.02.35-.02,2.06,0,4.12,0,6.17,0,.31,0,.38.09.37.38-.02,1.15,0,2.31,0,3.46,0,.1,0,.2-.02.32h-6.88v-4.14Z"/>
      </g>
      <g>
        <path d="M874.75,10.02l.5-1.29h.51v1.82h-.33v-1.42h0l-.54,1.42h-.25l-.54-1.42h0v1.42h-.33v-1.82h.51M873.36,9.02h-.56v1.53h-.35v-1.53h-.56v-.29h1.47v.29Z"/>
        <path d="M731.09,15.43h-3.79l-1.11,2.54h-1.57l4.09-9.24h.99c.75,1.86,4.1,9.24,4.1,9.24h-1.58M730.56,14.12l-1.37-3.25-1.36,3.25h2.72Z"/>
        <path d="M836.8,15.44h-3.79l-1.11,2.54h-1.57l4.09-9.24h.99c.75,1.86,4.1,9.24,4.1,9.24h-1.58M836.28,14.12l-1.37-3.25-1.36,3.25h2.72Z"/>
        <polyline points="756.43 10.04 752.72 10.04 752.72 12.26 756.32 12.26 756.32 13.57 752.72 13.57 752.72 16.66 756.43 16.66 756.43 17.97 751.33 17.97 751.33 8.73 756.43 8.73"/>
        <path d="M764.2,14.03l2.86,3.94h-1.71l-2.64-3.78h-.25v3.78h-1.4v-9.24h1.63c1.22,0,2.1.23,2.64.69.6.51.9,1.18.9,2.02,0,.65-.19,1.22-.56,1.69-.38.47-.87.77-1.48.9M762.46,12.98h.44c1.32,0,1.98-.5,1.98-1.51,0-.95-.64-1.42-1.93-1.42h-.5v2.93Z"/>
        <rect x="771.28" y="8.73" width="1.39" height="9.24"/>
        <path d="M784.18,9.23v1.65c-.81-.67-1.64-1.01-2.5-1.01-.95,0-1.75.34-2.4,1.02-.65.68-.98,1.51-.98,2.49s.33,1.79.98,2.45c.65.67,1.46,1,2.41,1,.49,0,.91-.08,1.25-.24.19-.08.39-.19.6-.32.21-.14.42-.3.65-.49v1.68c-.8.45-1.64.68-2.51.68-1.32,0-2.45-.46-3.38-1.38-.93-.93-1.39-2.05-1.39-3.36,0-1.18.39-2.23,1.17-3.15.96-1.13,2.2-1.69,3.72-1.69.83,0,1.63.23,2.41.68"/>
        <polyline points="826.75 10.05 823.04 10.05 823.04 12.27 826.64 12.27 826.64 13.58 823.04 13.58 823.04 16.66 826.75 16.66 826.75 17.97 821.65 17.97 821.65 8.74 826.75 8.74"/>
        <path d="M846.96,13.16h3.82v.31c0,.69-.08,1.31-.25,1.84-.16.49-.43.96-.81,1.39-.86.97-1.95,1.45-3.27,1.45s-2.4-.47-3.32-1.4c-.92-.94-1.38-2.06-1.38-3.38s.47-2.48,1.41-3.41c.94-.94,2.08-1.41,3.42-1.41.72,0,1.4.15,2.02.44.6.3,1.19.77,1.76,1.44l-.99.95c-.76-1.01-1.68-1.51-2.77-1.51-.98,0-1.8.34-2.46,1.01-.66.66-.99,1.49-.99,2.49s.37,1.88,1.11,2.54c.69.62,1.44.93,2.24.93.69,0,1.3-.23,1.85-.69.55-.47.85-1.02.92-1.68h-2.3"/>
        <polyline points="856.39 8.74 856.39 16.66 859.11 16.66 859.11 17.97 855 17.97 855 8.74"/>
        <polyline points="863.33 8.74 863.33 17.97 868.43 17.97 868.43 16.66 864.72 16.66 864.72 13.58 868.32 13.58 868.32 12.27 864.72 12.27 864.72 10.05 868.43 10.05 868.43 8.74"/>
        <path d="M794.27,15.43h-3.79l-1.11,2.54h-1.57l4.09-9.24h.99c.75,1.86,4.1,9.24,4.1,9.24h-1.58M793.74,14.12l-1.37-3.25-1.36,3.25h2.72Z"/>
        <polyline points="739.39 12.39 741.86 17.97 742.24 17.97 744.79 12.4 745.68 17.97 747.11 17.97 745.47 8.67 745.07 8.67 742.07 15.22 739.18 8.67 738.78 8.67 736.96 17.97 738.4 17.97"/>
        <polyline points="808.99 17.97 808.99 8.73 807.59 8.73 807.59 15.16 801.1 8.67 800.57 8.67 800.57 17.97 801.96 17.97 801.96 11.48 808.45 17.97"/>
      </g>
      <g>
        <path d="M1250.17,24.02h-92.27V3.56h92.27v20.46ZM1158.87,23.05h90.33V4.53h-90.33v18.52Z"/>
        <path d="M1165.78,16.6l-.37,2.29h-1.57l1.7-9.98h2.07l1.67,9.98h-1.58l-.35-2.29h-1.57ZM1166.57,11.2l-.56,3.94h1.12l-.56-3.94Z"/>
        <path d="M1171.5,18.89h-1.51v-9.99h2.16l1.4,7.18,1.35-7.18h2.08v9.99h-1.51v-6.28l-1.31,6.28h-1.21l-1.46-6.26v6.26Z"/>
        <path d="M1177.77,18.89v-9.99h4.29v1.51h-2.78v2.72h2.03v1.51h-2.03v2.73h2.78v1.51h-4.29Z"/>
        <path d="M1184.9,8.91c.84,0,1.46.23,1.85.69.35.4.52.97.52,1.69v1.45c0,.71-.27,1.3-.8,1.79l1.12,4.36h-1.63l-.91-3.76h-1v3.76h-1.51v-9.98h2.37ZM1185.81,11.32c0-.58-.29-.87-.86-.87h-.91v3.19h.91c.24,0,.44-.08.61-.25.17-.17.25-.37.25-.61v-1.46Z"/>
        <path d="M1189.82,18.89h-1.51v-9.98h1.51v9.98Z"/>
        <path d="M1192.98,19.02c-.66,0-1.23-.23-1.69-.7-.46-.46-.7-1.03-.7-1.69v-5.45c0-.66.23-1.23.7-1.69.47-.46,1.03-.7,1.69-.7s1.23.23,1.69.7c.46.47.69,1.03.69,1.69v1.14h-1.56v-1.17c0-.24-.08-.44-.25-.61-.17-.17-.37-.25-.61-.25s-.44.09-.61.25c-.17.17-.25.37-.25.61v5.47c0,.24.08.44.25.61.17.17.37.25.61.25s.44-.08.61-.25c.17-.17.25-.37.25-.61v-1.38h1.56v1.39c0,.66-.23,1.23-.7,1.69-.47.46-1.03.69-1.68.69Z"/>
        <path d="M1197.59,16.6l-.37,2.29h-1.57l1.7-9.98h2.07l1.67,9.98h-1.58l-.35-2.29h-1.57ZM1198.38,11.2l-.56,3.94h1.12l-.56-3.94Z"/>
        <path d="M1203.5,8.9l2,6.71v-6.71h1.51v9.99h-1.62l-2.07-6.4v6.4h-1.51v-9.99h1.69Z"/>
        <path d="M1209.98,19.22v-10.19h2.3c.61,0,1.15.16,1.64.48.42.27.72.69.89,1.26.1.3.15.66.15,1.08,0,.68-.18,1.23-.54,1.64-.15.17-.33.31-.54.4.34.13.63.39.87.77.16.26.27.6.35,1.01.04.21.06.45.06.71,0,.64-.12,1.19-.37,1.64-.19.35-.46.63-.8.85-.39.24-.78.36-1.16.36h-2.85ZM1211.64,13.19h.64c.48,0,.8-.23.96-.7.06-.17.09-.39.09-.64,0-.42-.1-.74-.31-.96-.19-.2-.44-.3-.74-.3h-.64v2.6ZM1211.64,17.7h.64c.52,0,.88-.27,1.08-.8.07-.18.11-.4.11-.63,0-.57-.11-.98-.33-1.24-.2-.24-.48-.36-.86-.36h-.64v3.04Z"/>
        <path d="M1218.34,9.03c.86,0,1.48.24,1.89.71.35.41.53.99.53,1.72v1.48c0,.72-.27,1.33-.82,1.83l1.14,4.45h-1.66l-.93-3.84h-1.02v3.84h-1.54v-10.19h2.42ZM1219.26,11.49c0-.59-.29-.89-.88-.89h-.93v3.26h.93c.24,0,.45-.09.62-.26.17-.17.26-.38.26-.63v-1.49Z"/>
        <path d="M1223.71,16.88l-.37,2.34h-1.6l1.73-10.19h2.11l1.71,10.19h-1.62l-.36-2.34h-1.6ZM1224.52,11.37l-.57,4.02h1.14l-.57-4.02Z"/>
        <path d="M1229.73,9.02l2.04,6.85v-6.85h1.54v10.19h-1.65l-2.11-6.53v6.53h-1.54v-10.19h1.73Z"/>
        <path d="M1238.94,16.78c0,.67-.24,1.25-.71,1.72-.47.48-1.04.72-1.71.72h-2.41v-10.19h2.41c.67,0,1.24.24,1.71.71.47.48.7,1.05.7,1.72v5.33ZM1235.65,17.7h.93c.24,0,.45-.09.62-.26.17-.18.25-.38.25-.62v-5.33c0-.24-.09-.45-.26-.63-.17-.17-.38-.26-.61-.26h-.93v7.11Z"/>
        <path d="M1244.71,16.68c.01.71-.17,1.32-.55,1.82-.25.34-.6.58-1.06.72-.24.08-.53.11-.85.11-.6,0-1.1-.15-1.5-.45-.33-.24-.59-.58-.78-1-.19-.42-.3-.9-.34-1.44l1.46-.11c.07.59.22,1.02.47,1.29.18.2.4.3.63.29.34-.01.6-.18.8-.5.1-.16.15-.38.15-.68,0-.42-.19-.84-.58-1.26-.3-.29-.76-.72-1.37-1.29-.51-.49-.87-.94-1.08-1.33-.23-.44-.34-.92-.34-1.43,0-.93.31-1.63.93-2.11.38-.29.86-.43,1.43-.43s1.02.12,1.41.37c.3.19.55.46.74.8.19.34.3.73.34,1.18l-1.47.27c-.04-.42-.16-.74-.36-.98-.14-.17-.34-.25-.61-.25-.28,0-.5.12-.64.37-.12.2-.18.45-.18.75,0,.47.2.94.6,1.42.15.18.38.4.68.65.36.3.59.51.71.63.38.38.67.75.88,1.12.1.17.18.33.24.48.15.36.22.69.23.98Z"/>
      </g>
      <g>
        <path d="M1050.6,16.16l5.12,6.79h-4.92l-4.61-6.58h-1.97v6.58h-4.05V4.63h8.25c4.61,0,6.38,2.89,6.38,5.87,0,2.48-1.31,4.99-4.35,5.66h.15ZM1044.22,7.76v5.51h3.12c1.92,0,3.51-.44,3.51-2.77s-1.59-2.74-3.51-2.74h-3.12Z"/>
        <path d="M1064.94,4.63h4.02v18.29h-4.02V4.63Z"/>
        <path d="M1082.1,19.51v3.41h-3.89V4.56h13.34v3.38h-9.45v4.12h8.35v3.56h-8.35v3.89Z"/>
        <path d="M1099.69,22.79V4.56h3.94v14.85h9.37v3.38h-13.32Z"/>
        <path d="M1125.99,15.62v3.89h10.32v3.38h-14.21V4.56h13.34v3.38h-9.45v4.12h8.35v3.56h-8.35Z"/>
      </g>
      <g>
        <g>
          <path d="M16.56,22.43c-1.55-.13-3.14-.74-4.09-1.98-.91-1.19-1.1-2.74-1.2-4.19-.12-1.68-.16-3.38.2-5.02.3-1.39.91-2.74,1.89-3.78.84-.89,2.39-1.84,3.49-.84,0,0,1.27.76.18,5.63,0,0-.95,5.11-3.09,9.17,0,0-4.26,8.16-8.81,8.23,0,0-2.65.23-4.31-1.76,0,0-.5-.65.65-.33,0,0,.77.21.83-.34,0,0,.23-.84-.59-.72,0,0-1.3-.04-1.44.79,0,0-.24,1.81,3.44,2.47,0,0,5.62,1.17,10.22-7.87,0,0,3.12-6.32,3.81-12.63.1-.94.09-2.08-.38-2.93-.55-.98-1.62-.75-2.46-.29-2.21,1.2-3.4,3.96-3.79,6.33-.32,1.9-.18,3.85.25,5.72.29,1.25.72,2.51,1.58,3.46.86.95,2.23,1.52,3.46,1.15.13-.04.28-.21.16-.28Z"/>
          <path d="M4.36,30.08c-.43,0-.68-.05-.71-.06C-.23,29.33,0,27.35,0,27.26h0c.17-.99,1.48-1.02,1.68-1.02.39-.05.6.08.71.21.25.28.17.71.14.81-.03.19-.12.35-.27.45-.33.23-.83.1-.88.09-.18-.05-.29-.07-.37-.08,1.56,1.85,4.05,1.65,4.08,1.65h.02c3.47-.05,6.84-5.13,8.08-7.21-.16-.13-.32-.28-.46-.44-.99-1.09-1.41-2.56-1.65-3.57-.47-2.05-.55-4.01-.25-5.82.5-3.02,1.97-5.46,3.92-6.52,1.26-.68,2.28-.54,2.81.39.42.75.56,1.78.42,3.08-.59,5.37-2.95,10.8-3.64,12.31.65.31,1.41.5,2.22.57h.06s.05.04.05.04c.12.07.18.2.16.34-.03.2-.22.36-.39.41-.83.25-1.78.11-2.62-.35-1.37,2.52-3.56,5.54-6.66,6.85-1.21.51-2.21.62-2.83.62ZM.52,27.34s0,.03,0,.06c.19-.27.64-.19,1.02-.09.12.03.36.05.45-.01.01,0,.04-.03.05-.1v-.04c.03-.1.04-.29-.02-.35-.04-.04-.14-.06-.27-.04h-.02s-.02,0-.02,0c-.01,0-1.07-.01-1.18.57ZM14.1,22.14c.47.26,1,.43,1.55.42-.54-.11-1.05-.28-1.51-.49-.01.02-.02.05-.04.07ZM13.45,21.69s.02.01.02.02c0,0,0,0,0,0,0,0-.02-.01-.03-.02ZM15.7,6.47c-.57,0-1.32.28-2.15,1.17-.87.93-1.5,2.19-1.82,3.65-.37,1.68-.3,3.44-.19,4.95.1,1.36.28,2.91,1.15,4.05.28.37.64.69,1.05.96,2.09-3.97,3.03-9,3.04-9.05,1.01-4.53-.06-5.35-.07-5.36l-.03-.02h0c-.2-.19-.54-.35-.97-.35ZM17.01,6.42s.11.09.2.2c-.02-.05-.05-.1-.08-.15-.19-.34-.55-.66-1.23-.53.39.03.77.18,1.11.48Z"/>
        </g>
        <path d="M24.78,23.74c-.31-.86-.16-1.8-.03-2.7.17-1.2.4-2.4.61-3.6.93-5.15,1.83-10.39,3.76-15.28.24-.61.49-1.2.76-1.8.09-.19.26-.42.46-.36.21.07.19.38.12.6-.83,2.62-1.75,5.22-2.49,7.86-.75,2.68-1.29,5.41-1.86,8.13-.21,1.01-.43,2.01-.66,3.01-.24,1.01-.34,2.02-.47,3.05.53-2.07,1.35-4.07,2.43-5.92.18-.3.36-.6.6-.85.11-.11.24-.22.39-.25.21-.04.42.08.55.25s.2.38.25.58c.54,1.98.5,4.06.66,6.1.02.28.09.62.36.69.12.03.24,0,.35-.04.29-.12.52-.34.73-.57,1.29-1.36,2.31-2.96,3.49-4.42.24-.3.55-.63.94-.63-.75,1.12-1.54,2.23-2.35,3.31-.6.8-1.22,1.58-1.9,2.31-.29.31-.61.61-1.01.77-.22.09-.49.13-.69-.02-.16-.12-.22-.33-.27-.53-.45-1.98-.38-4.03-.76-6.03-.04-.21-.15-.47-.36-.44-.12.01-.2.12-.26.21-1.16,1.63-2.01,3.48-2.49,5.42-.12.5-.22,1.01-.38,1.5-.01.04-.03.09-.07.12-.09.06-.21-.05-.26-.15-.06-.11-.11-.22-.15-.34Z"/>
        <path d="M16.37,22.91c-.27-.95-.18-1.96-.02-2.92.16-.92.52-1.79.98-2.6.44-.78,1.04-1.64,1.56-2.22.19-.21.44-.37.69-.51.13-.07.31-.15.43-.01.12.14.1.38.03.53-.17.36-.58.55-.88.79-1.04.85-1.76,2.03-2.18,3.3-.23.68-.33,1.33-.39,2.05-.05.67,0,1.44.27,2.07.28.62.81.84,1.45.58,1.62-.66,2.32-2.66,1.88-4.26-.12-.45-.29-.96-.44-1.42-.16-.49.52-.58.85-.61.74-.07,1.49-.07,2.24-.09.53-.02,1.05-.02,1.58-.01.27,0,.54.01.81.02.17,0,.47-.02.47.24,0,.13-.1.23-.22.28-.14.06-.3.04-.45.03-1.14-.11-2.31-.25-3.46-.22-.34,0-.86,0-1.14.22-.19.16-.04.39,0,.59.1.44.21.88.24,1.32.15,1.41-.28,2.66-1.3,3.63-1.23,1.14-2.5.79-2.99-.78Z"/>
        <path d="M38.6,23.71c-.26,0-.47-.07-.65-.2-.81-.62-.26-2.37-.18-2.59.64-2.17.74-3.69.75-3.9-.02-.14-.09-.25-.21-.34-.41-.3-1.26-.24-1.56-.19-.57.08-.75.37-.75.39-.26.46-.82,1.4-1.07,1.81l-.45-.27c.24-.4.8-1.34,1.05-1.78.04-.08.32-.54,1.13-.65.12-.02,1.29-.2,1.95.28.24.18.38.41.42.71v.02s0,.02,0,.02c0,.07-.07,1.66-.78,4.05h0c-.21.63-.4,1.73,0,2.03.17.13.76.3,2.55-.91.1-.07.21-.15.32-.22.13-.12.37-.28.6-.2.06.02.21.1.25.32v.03s0,.03,0,.03c0,.15-.12.48-.98.56-1.03.68-1.82,1.02-2.4,1.02Z"/>
        <path d="M32.82,21.85l-.4-.33c1.36-1.63,3.41-4.11,3.53-4.28h0s.48-.61,1.56-.44c.1,0,.79.09,1.16.6.23.31.29.7.18,1.16l-.51-.12c.07-.31.04-.55-.09-.73-.25-.34-.79-.39-.79-.39h-.02c-.73-.11-1.04.2-1.08.24-.25.34-3.21,3.89-3.55,4.3Z"/>
        <path d="M34.57,18.61s.69-.88,1.06-1.61c0,0,.24-.62.96-.74,0,0,1-.24,1.84.19,0,0,.53.23.3,1.13l-.09.41s-.14-.76-.82-.86c0,0-1.05-.37-1.66.26l-1.52,1.81-.08-.58Z"/>
        <g>
          <path d="M40.94,22.42s.48-.53.72-.45c0,0,.16.14,0,.25,0,0-.3.18-.72.19Z"/>
          <path d="M40.34,22.7l.4-.45c.22-.25.64-.64,1-.52l.05.02.04.03s.17.16.16.35c0,.12-.07.23-.18.31h-.01s-.36.23-.85.24l-.6.02Z"/>
        </g>
        <path d="M65.89,18.05s-.82-.34.09-1.01c0,0,.41-.25.05.77l-.14.24Z"/>
        <g>
          <g>
            <path d="M76.77,17.59c-4.02,2.9-9.44,5.59-9.5,5.62-.61.32-.92.33-1.01.24-.35-.36.43-2.38,1.37-4.06l.08-.15c.21-.41.43-.82.68-1.21.24-.06.56-.13.83-.29.19-.11.39-.37.39-.63,0-.19-.09-.35-.26-.46-.37-.23-.72.19-.85.34l-.02.02c-.15.18-.29.36-.41.55-.43.09-.91.16-1.52.21-.05,0-.09,0-.14.01h-.09c-.06.01-.17.02-.29.02,0,0,0-.01,0-.02l.03-.08c.08-.22.19-.54.05-.78-.12-.21-.34-.27-.56-.17-.3.15-.66.73-.5,1.11.04.1.11.18.18.25-1.45,2.22-4.06,3.72-4.23,3.81-.53.24-.73.06-.8,0-.22-.19-.48-.71-.45-2.15-.17.02-.36-.03-.52-.13-.04,1.39.17,2.27.63,2.67.24.21.67.39,1.37.07h.02c.13-.08,2.94-1.65,4.48-4.08.23.03.47.01.63,0h.09s.1-.01.14-.02c.42-.04.78-.08,1.11-.13-.16.28-.3.56-.45.84l-.08.15c-.5.89-2.07,3.85-1.28,4.67.15.15.34.21.54.21.42,0,.89-.24,1.08-.34.05-.03,5.51-2.74,9.57-5.67l-.3-.42ZM69.07,17.14s-.07.12-.13.15c-.01,0-.03.02-.04.02.07-.08.13-.14.17-.18Z"/>
            <path d="M65.59,17.47s-.04.1-.05.14c0-.01.01-.02.02-.03v-.03s.03-.04.04-.07Z"/>
          </g>
          <path d="M66.64,23.91c-.27,0-.48-.08-.64-.25-.5-.52-.14-1.61-.1-1.74l.49.17-.25-.09.25.09c-.1.29-.24.98-.02,1.2.15.16.51.07.71,0l.16.5c-.22.07-.43.11-.6.11Z"/>
          <path d="M67.49,23.68l-.2-.48c.06-.02,5.67-2.41,9.41-5.45l.33.4c-3.79,3.09-9.48,5.5-9.54,5.53Z"/>
          <g>
            <path d="M76.11,21.92c-.39-1.51-.05-3.08.81-5.43.17-.4.53-1.21,1.1-1.03.26.08.31.27.28.58-.07.57-.3,1.14-.48,1.69-.2.59-.39,1.17-.6,1.75-.21.59-.41,1.16-.5,1.78-.06.42-.05.91.23,1.26.14.17.37.32.6.31.27-.01.49-.23.68-.39.27-.24.5-.51.73-.78.59-.68,1.11-1.43,1.66-2.15.61-.8,1.22-1.59,1.88-2.34.08-.09.2-.19.31-.14.08.04.11.14.09.23s-.08.16-.14.23c-1.18,1.41-2.17,2.98-3.39,4.36-.37.42-.77.89-1.22,1.23-.49.36-1,.27-1.47-.09-.26-.28-.46-.76-.54-1.08Z"/>
            <path d="M79.3,11.49c.04-.07.7-1.24,1.09-1.12,0,0,.33-.05-.16.93,0,0-1.29,3.22-1.59,2.24,0,0-.01-.98.66-2.05Z"/>
          </g>
          <path d="M86.98,2.91c.63-2.01.08-1.66.08-1.66-.38-.05-.43.26-.43.26l-4.62,15.87s-2.41,7.22-.58,6.01c0,0,3.6-2.06,3.58-5.38,0,0-.12-1.59-2.11-.82,0,0-.22-.03.03-.86l4.05-13.41ZM82.93,18.19c.16-.14.37-.22.62-.22.16,0,.33,0,.47.1.08.06.14.15.18.25.11.27.04.55-.07.81-.1.24-.19.47-.3.71-.14.32-.31.63-.53.91-.24.3-.54.53-.82.79-.12.11-.24.22-.37.32-.12.09-.26.19-.41.18-.05,0-.11-.02-.13-.07-.02-.03-.01-.07,0-.1.05-.53.25-1.03.46-1.52.13-.29.25-.58.35-.87s.17-.6.28-.88c.07-.17.16-.31.28-.41Z"/>
          <path d="M86.1,22.55c-.46-.17-.75-.44-.86-.81-.19-.64.28-1.3.3-1.32l.42.31c-.1.13-.32.55-.22.87.06.2.24.36.54.47l-.18.49Z"/>
          <path d="M68.21,17.8s.71-1.14.99-.93c0,0,.34.16,0,.53,0,0-.4.29-.99.4Z"/>
          <path d="M65.96,22.83s-.08.86.77.82c0,0-.32.24-.64,0,0,0-.32-.35-.13-.82Z"/>
          <path d="M68.9,22.66l3.03-1.68,2.76-1.67,1.79-1.19-.18.27s-2.95,2.12-4.62,2.94c0,0-2.46,1.36-2.78,1.33Z"/>
          <path d="M81.04,23.44s-.29.6,4.46-2.44"/>
          <g>
            <path d="M86.92,22.68c-.96,0-1.55-.22-1.79-.66-.33-.59.13-1.26.23-1.39,1.83-3.03,3.31-4.54,4.41-4.46.5.03.8.38.9.59.2.35.05.79-.44,1.3-.31.32-.65.57-.67.58l-.36-.51c.62-.45.99-.96.93-1.07l-.02-.03s-.12-.23-.38-.24c-.39-.02-1.54.35-3.84,4.18l-.02.03c-.09.12-.31.5-.19.73.06.11.37.44,1.91.31.01,0,.6-.04,1.38-.32.1-.04.2-.07.3-.11h0s0,0,0,0c.65-.27,1.24-.63,1.75-1.08.05-.04.22-.18.44-.16.11,0,.21.06.29.14.09.07.18.18.18.34,0,.3-.3.45-.4.51h-.02s-.98.46-2.01.84c-.11.04-.22.09-.33.12-.87.31-1.52.35-1.54.35-.26.02-.49.03-.71.03Z"/>
            <path d="M89.48,18.7l-.42-.47c.79-.71.79-1.02.78-1.08,0,0,0-.04,0-.04h-.03s-.02-.03-.02-.03c-.21-.15-.99.12-1.93,1.03l-.44-.45c.3-.29,1.82-1.7,2.71-1.11.14.08.3.24.33.5.07.45-.25.98-.98,1.64Z"/>
            <path d="M81.4,23.61l-.23-.58c2.6-1.05,7.98-4.87,8.03-4.91l.36.51c-.22.16-5.49,3.9-8.16,4.98Z"/>
            <path d="M87.97,17.54s1.31-1.07,1.95-.74c0,0,.42.15.18.66l-.3.58s.66-.54.64-1.03c0,0-.15-.49-.68-.54,0,0-.83,0-1.79,1.07Z"/>
            <path d="M90.16,21.51s.9-.57,1.08-.76c0,0,.28-.16.36.03,0,0,.16.13-.36.35l-1.05.44"/>
          </g>
          <path d="M85.46,21.13s-.21.56.37,1.04c0,0-.48-.1-.49-.61"/>
        </g>
        <g>
          <path d="M65.31,16.83s-.05.06-.07.09c0,0,.02.02.02.03-1.45,2.22-4.06,3.72-4.23,3.81-.53.24-.73.06-.8,0-.35-.3-.82-1.47,0-5.89.12-.67.26-1.33.4-1.95.73-1.65,1.34-3.33,1.83-4.87v-.04s.01-.04.01-.04c0-.31-.12-.5-.32-.53-.28-.04-.53.09-1.25,2.25h0s-.38,1.35-.77,3.07c-1.42,3.19-3.3,6.27-5.67,7.86-2.11,1.42-3.64.96-3.66.95-1.33-.41-2.17-1.17-2.56-2.32-1.58-4.63,4.81-13.85,5.55-14.89.07-.1.11-.15.11-.15l.02-.02v-.03c.11-.22.08-.42-.06-.53-.23-.19-.55.02-.83.22l-.03.02-.02.03c-.12.16-.13.33-.04.45.04.06.09.09.15.11-1.66,2.41-6.86,10.48-5.33,14.96.44,1.3,1.42,2.19,2.9,2.65.06.02,1.38.43,3.3-.55,2.34-1.19,4.25-3.76,5.75-6.66-.65,3.56-.59,5.62.19,6.29.24.21.67.39,1.37.07h.02c.13-.08,2.92-1.64,4.46-4.06-.15-.09-.29-.21-.43-.34Z"/>
          <path d="M52.18,21.39c-.74,0-1.24-.14-1.29-.15-1.14-.35-1.97-1.03-2.47-2.03-.54-1.07-.68-2.48-.43-4.17.19-1.25.52-2.18.54-2.22l.49.18s-1.3,3.64-.13,5.98c.43.86,1.16,1.46,2.15,1.76.1.03,2.62.73,4.93-1.39l.35.38c-1.49,1.37-3.07,1.65-4.14,1.65Z"/>
          <path d="M65.59,17.07l-.3-.17c-3.16,5.39-4.55,5.46-4.7,5.45h-.02s-.08-.02-.08-.02c-.05,0-.13-.01-.23-.11-.16-.18-.44-.71-.5-2.3-.03-.94.03-1.79.03-1.8l-.52-.04c-.03.36-.25,3.56.61,4.49.16.17.35.27.56.28.04.01.1.02.17.02.58,0,2.13-.62,5.12-5.7-.05-.03-.1-.06-.15-.1Z"/>
          <path d="M48.49,13.71s-.65,2.68-.21,4.28c0,0,.22,1.51,1.37,2.33,0,0,.95.94,2.93.79,0,0,1.96-.18,2.95-1.07,0,0-1.31,1.41-3.2,1.78,0,0-1.41.32-2.76-.52,0,0-1.59-.91-1.78-2.91,0,0-.3-2.19.71-4.69Z"/>
          <path d="M53.35,3.94s-.41.29-.08.26l.36-.21s.11-.11.08-.16c0,0-.15-.08-.36.1Z"/>
          <g>
            <path d="M60.48,12.62l1.42-3.7.32-.95s0-.56-.28-.13c0,0-.9,1.7-1.46,4.78Z"/>
            <path d="M60.73,12.71l-.5-.14c.56-3.08,1.44-4.78,1.48-4.86v-.02c.07-.08.24-.34.5-.27.24.07.27.37.27.54v.04s-.33,1.01-.33,1.01l-1.42,3.7Z"/>
          </g>
          <path d="M59.56,19.62s.07,1.38.88,1.5c0,0,.43.38,3.04-1.81,0,0,.94-.74,1.72-1.79,0,0-2.16,3.94-4.22,4.99,0,0-1.06.38-1.25-.86,0,0-.27-1.49-.17-2.04Z"/>
        </g>
      </g>
      <g>
        <path d="M116.13,4.89c-1.75,0-3.25.73-4.4,2.13-1.07,1.37-1.62,2.82-1.62,4.44v4.82c0,2.01.47,3.63,1.45,4.95,1.11,1.54,2.74,2.31,4.87,2.31,1.97,0,3.46-.64,4.49-1.92.9-1.15,1.37-2.56,1.37-4.27h-2.99c0,1.49-.26,2.65-.73,3.33-.47.64-1.15.98-2.1.98-.77,0-1.41-.38-1.84-1.11-.43-.73-.6-1.66-.6-2.86v-7.73c0-2.13.68-3.2,2.1-3.2.98,0,1.84.81,2.44,2.35.47,1.28.73,2.82.73,4.48h2.99V5.01h-1.97c0,.34-.04.6-.13.73-.09.13-.21.17-.34.17-.34,0-.81-.17-1.41-.47-.73-.38-1.5-.55-2.31-.55Z"/>
        <path d="M131.82,5.1v1.62l.9.17c.3.04.51.3.73.68.17.43.21.94.21,1.66v3.46h-4.75v-3.46c0-.68.13-1.24.26-1.66.17-.38.38-.64.73-.68l.9-.17v-1.62h-7.01v1.62l.94.17c.3.04.51.3.68.68.13.43.26.98.26,1.66v10.03c0,1.37-.34,2.13-.94,2.26l-.94.17v1.62h7.06v-1.62l-.94-.17c-.64-.13-.98-.9-.98-2.26v-4.01h4.75v4.01c0,.68-.04,1.2-.21,1.58-.13.43-.38.64-.73.68l-.9.17v1.62h6.97v-1.62l-.9-.17c-.64-.13-.94-.9-.94-2.26v-10.03c0-.68.09-1.24.26-1.66.17-.38.38-.64.68-.68l.9-.17v-1.62h-6.97Z"/>
        <path d="M145.25,7.4c.3-.34.81-.51,1.54-.51.68,0,1.28.26,1.75.85.47.6.77,1.41.77,2.43v1.24h1.8v-6.32h-11.37v1.62l.9.17c.26.04.51.3.68.68.13.43.21.98.21,1.66v10.03c0,1.41-.3,2.18-.9,2.26l-.9.17v1.62h11.37v-6.53h-1.8v1.41c0,1.02-.17,1.79-.51,2.35-.43.64-1.07.94-2.01.94-1.28,0-1.92-.64-1.92-2.01v-4.74h2.86v-2.05h-2.86v-3.8c0-.68.09-1.15.38-1.49Z"/>
        <path d="M151.96,5.1v1.62l.94.17c.3.04.51.26.73.64.21.3.38.73.47,1.28l2.86,14.51h3.12l3.63-13.23.68-2.3c.21-.55.47-.85.77-.9l.9-.17v-1.62h-5.6v1.62l.94.17c.38.04.64.26.77.64.09.34.09.81-.09,1.41l-2.69,9.82-1.97-9.95c-.26-1.2-.04-1.84.64-1.92l.9-.17v-1.62h-7.01Z"/>
        <path d="M173.94,6.72v-1.62h-6.97v1.62l.94.17c.26.04.47.3.68.68.13.43.21.98.21,1.66v10.03c0,1.37-.3,2.13-.9,2.26l-.94.17v1.62h7.01v-1.62l-.9-.17c-.64-.13-.98-.9-.98-2.26v-10.03c0-.68.09-1.24.26-1.66.17-.38.43-.64.68-.68l.9-.17Z"/>
        <path d="M184.85,5.61c-.09.21-.21.3-.38.3s-.43-.04-.68-.17l-.68-.3c-.81-.38-1.58-.55-2.35-.55-1.84,0-3.34.68-4.45,2.05-1.07,1.28-1.58,2.77-1.58,4.48v4.87c0,2.01.47,3.63,1.41,4.95,1.11,1.54,2.69,2.31,4.7,2.31l2.31-.3.64-.26c.21-.09.38-.17.51-.17.3,0,.51.17.68.51h1.5v-4.57c0-.98.3-1.49.9-1.49h.94v-2.22h-5.9v2.22h.47c.68,0,1.03.51,1.03,1.54,0,1.88-.86,2.86-2.65,2.86-.81,0-1.5-.47-1.97-1.37-.43-.77-.64-1.66-.64-2.6v-7.73c0-2.13.68-3.2,2.1-3.2,1.03,0,1.84.81,2.39,2.35.51,1.28.77,2.77.77,4.48h2.99V5.01h-1.92l-.13.6Z"/>
        <path d="M202.16,6.89l.94-.17v-1.62h-5.6v1.62l.94.17c.3.04.51.3.68.68.17.43.26.98.26,1.66v6.27h-.04l-3.81-10.42h-6.5v1.62l.9.17c.26.04.51.3.68.68.17.43.26.98.26,1.66v10.03c0,1.37-.3,2.13-.94,2.26l-.9.17v1.62h5.26v-1.62l-.6-.17c-.34-.04-.6-.3-.73-.68-.17-.38-.21-.9-.21-1.58v-10.03h.04l5.09,14.09h3.38v-14.09c0-.68.04-1.24.21-1.66.17-.38.43-.64.68-.68Z"/>
        <path d="M203.23,11.42v5.55c-.04,1.96.51,3.54,1.62,4.74,1.11,1.2,2.61,1.84,4.4,1.84s3.25-.68,4.4-2.05c1.07-1.28,1.62-2.86,1.58-4.74v-5.34c0-1.84-.56-3.37-1.62-4.61-1.15-1.28-2.57-1.92-4.36-1.92s-3.21.64-4.36,2.01c-1.07,1.28-1.67,2.77-1.67,4.52ZM207.21,17.69v-7.73c0-.94.09-1.71.34-2.18.34-.68.94-1.02,1.71-1.02,1.37,0,2.05,1.07,2.05,3.2v7.73c0,2.65-.68,3.97-2.05,3.97-.77,0-1.37-.38-1.71-1.2-.26-.6-.34-1.54-.34-2.77Z"/>
        <path d="M215.63,5.1v1.62l.9.17c.3.04.51.3.68.68.17.43.26.98.26,1.66v10.03c0,1.37-.34,2.13-.94,2.26l-.9.17v1.62h5.26v-1.62l-.6-.17c-.34-.04-.6-.3-.77-.68-.13-.38-.21-.9-.21-1.58v-10.03h.09l5.05,14.09h3.38v-14.09c0-.68.09-1.24.26-1.66.17-.38.43-.64.73-.68l.86-.17v-1.62h-5.56v1.62l.94.17c.26.04.51.3.68.68.17.43.26.98.26,1.66v6.27h-.04l-3.85-10.42h-6.46Z"/>
      </g>
      <g>
        <polygon points="604.42 13.64 606.1 16.31 609.49 10.91 609.49 22.87 612.41 22.87 612.41 5.47 609.43 5.47 604.42 13.64"/>
        <polygon points="596.23 5.47 593.28 5.47 593.28 22.87 596.2 22.87 596.2 10.91 602.85 21.53 604.54 18.82 596.23 5.47"/>
        <polygon points="629.97 17.48 632.67 22.87 636.19 22.87 627.36 5.47 624.18 5.47 624.18 5.47 628.6 14.7 622.72 14.7 624.26 11.69 622.66 8.42 615.22 22.87 618.51 22.87 621.29 17.48 629.97 17.48"/>
        <polygon points="655.68 5.47 652.75 5.47 652.75 13.92 655.68 16.86 655.68 5.47"/>
        <polygon points="641.55 5.47 638.57 5.47 638.57 22.87 641.5 22.87 641.5 9.87 653.5 22.87 655.68 22.87 655.68 20.76 641.55 5.47"/>
        <g>
          <path d="M676.13,10.3c-1.39-1.45-3.54-2.37-5.95-2.37-3.85,0-7.03,2.36-7.54,5.43h-3.22c.42-4.76,5.29-8.27,10.8-8.27,3.28,0,6.22,1.22,8.2,3.18l-2.29,2.03Z"/>
          <path d="M669.91,20.44c-3.21,0-5.95-1.74-6.97-4.18h-3.29c1.09,4.2,5.36,7,10.44,7,1.18,0,2.54-.12,3.66-.4,2.54-.63,5.32-2.28,5.32-4.89v-4.63h-9.19v2.91s6.26,0,6.26,0v1.32c0,1.46-2.18,2.31-3.52,2.6-.72.16-1.64.25-2.39.25h-.32Z"/>
          <path d="M703.27,14.19c0-5.19-4.71-9.22-10.5-9.22s-10.53,3.84-10.53,8.94c0,4.81,3.87,8.66,9.07,9.27v-2.91c-3.41-.56-5.98-3.11-5.98-6.17,0-3.47,3.31-6.29,7.39-6.29s7.4,2.82,7.4,6.29c0,3.04-2.54,5.57-5.9,6.15v2.91c5-.61,9.04-4.31,9.04-8.98"/>
        </g>
      </g>
      <g>
        <path d="M910.51,4.64v17.62h-2.69l-9.72-11.93v11.93h-3.25V4.64h2.69l9.72,11.93V4.64h3.25Z"/>
        <path d="M929.19,18.18h-8.81l-1.74,4.08h-3.37l7.93-17.62h3.22l7.96,17.62h-3.42l-1.76-4.08ZM928.1,15.61l-3.32-7.7-3.3,7.7h6.62Z"/>
        <path d="M942.4,7.38v5.36h8.51v2.77h-8.51v6.75h-3.27V4.64h12.87v2.74h-9.59Z"/>
        <path d="M980.29,4.64v17.62h-2.69l-9.72-11.93v11.93h-3.25V4.64h2.69l9.72,11.93V4.64h3.25Z"/>
        <path d="M998.98,18.18h-8.81l-1.74,4.08h-3.37l7.93-17.62h3.22l7.96,17.62h-3.42l-1.76-4.08ZM997.89,15.61l-3.32-7.7-3.3,7.7h6.62Z"/>
        <path d="M1012.19,7.38v5.36h8.51v2.77h-8.51v6.75h-3.27V4.64h12.87v2.74h-9.59Z"/>
      </g>
      <g>
        <path d="M469.46,5.02l-2.41,18.19h3.56l.31-3.66h1.77l.31,3.66h3.56l-2.41-18.19h-4.69ZM471.07,16.63l.69-7.4h.08l.69,7.4h-1.46Z"/>
        <polygon points="483.78 13.73 483.7 13.73 482.06 5.02 477.45 5.02 477.45 23.21 481.09 23.21 481.14 12.48 481.22 12.48 482.83 23.21 484.65 23.21 486.26 12.48 486.34 12.48 486.39 23.21 490.03 23.21 490.03 5.02 485.42 5.02 483.78 13.73"/>
        <polygon points="491.56 23.21 497.66 23.21 497.66 20.29 495.3 20.29 495.3 14.78 497.66 14.78 497.66 11.86 495.3 11.86 495.3 7.97 497.66 7.97 497.66 5.05 491.56 5.05 491.56 23.21"/>
        <path d="M503.65,5.02h-4.59v18.19h3.74v-7.3h.87c.38,0,.72.23.72.72v6.58h3.74v-6.43c0-1.05-.2-2.07-1.61-2.64,1.41-.56,1.61-1.59,1.61-2.64v-3.43c0-1.79-.54-3.05-4.48-3.05ZM503.68,12.99h-.87v-5.07h.84c.38,0,.74.28.74.77v3.59h0c0,.49-.33.72-.72.72Z"/>
        <rect x="509.75" y="5.02" width="3.74" height="18.19"/>
        <path d="M519.58,4.82c-3.94,0-4.48,1.25-4.48,3.05v12.5c0,1.79.54,3.05,4.48,3.05s4.48-1.25,4.48-3.05v-5.15h-3.74v4.53c0,.49-.36.77-.74.77s-.74-.28-.74-.77v-11.27c0-.49.36-.77.74-.77s.74.28.74.77v3.92h3.74v-4.53c0-1.79-.54-3.05-4.48-3.05Z"/>
        <path d="M527.16,5.02l-2.41,18.19h3.56l.31-3.66h1.77l.31,3.66h3.56l-2.41-18.19h-4.69ZM528.78,16.63l.69-7.4h.08l.69,7.4h-1.46Z"/>
        <polygon points="540.87 14.06 540.79 14.06 538.67 5.02 535.21 5.02 535.21 23.21 538.51 23.21 538.51 14.06 538.59 14.06 540.74 23.21 544.17 23.21 544.17 5.02 540.87 5.02 540.87 14.06"/>
        <rect x="545.84" y="5.02" width="3.74" height="18.19"/>
        <polygon points="556.9 14.06 556.82 14.06 554.7 5.02 551.24 5.02 551.24 23.21 554.54 23.21 554.54 14.06 554.62 14.06 556.77 23.21 560.21 23.21 560.21 5.02 556.9 5.02 556.9 14.06"/>
        <path d="M566.28,4.82c-3.94,0-4.48,1.25-4.48,3.05v12.5c0,1.79.54,3.05,4.48,3.05s4.48-1.25,4.48-3.05V7.87c0-1.79-.54-3.05-4.48-3.05ZM567.02,19.75c0,.49-.36.77-.74.77s-.74-.28-.74-.77v-11.27c0-.49.36-.77.74-.77s.74.28.74.77v11.27Z"/>
        <path d="M572.85,6.44c0-.11-.02-.19-.03-.24-.02-.05-.05-.09-.1-.13-.05-.04-.1-.06-.17-.06.1,0,.18-.04.23-.09.05-.05.08-.12.08-.22,0-.11-.04-.2-.12-.27-.08-.07-.2-.1-.38-.1h-.54v1.25s.37,0,.37,0v-.42c.09,0,.16,0,.19.02h0s.06.04.08.07c.01.02.02.08.03.16,0,.08.01.14.02.17h.36s-.02-.04-.02-.05c0-.01,0-.04,0-.09ZM572.44,5.85s-.09.05-.18.05h-.07v-.32h.07c.08,0,.14.01.17.04.03.03.05.07.05.11,0,.06-.02.1-.05.13Z"/>
        <path d="M573.35,5.49h0c-.05-.12-.12-.23-.22-.33-.1-.1-.21-.18-.35-.24-.14-.07-.29-.1-.46-.1s-.34.04-.49.11c-.11.05-.22.13-.31.22-.1.09-.17.21-.23.35-.06.14-.09.28-.09.44,0,.17.04.34.11.49.05.11.13.22.22.31.09.09.21.17.35.23.14.06.29.09.44.09.17,0,.33-.04.49-.11.12-.06.23-.14.33-.23.1-.1.18-.22.23-.36.06-.14.08-.28.08-.42,0-.16-.03-.31-.1-.46ZM573.11,6.4c-.08.14-.19.26-.34.34-.14.08-.29.12-.45.12s-.31-.04-.45-.12c-.14-.08-.26-.19-.34-.34-.08-.14-.12-.3-.12-.45,0-.13.03-.26.08-.37.05-.11.12-.2.19-.28.08-.08.16-.14.25-.18.12-.06.25-.08.38-.08.11,0,.23.02.34.07.11.04.2.11.29.19.08.08.14.17.19.26.06.12.09.25.09.39,0,.16-.04.31-.12.45Z"/>
      </g>
      <g>
        <path class="cls-4" d="M1267.21,9.55l-.41,12.42c-.03.86.61,1.97,1.74,1.97.18,0,.41-.06.54-.06s.23.12.23.28c0,.19-.1.28-.38.28-.21,0-1.28-.06-2.51-.06s-2.25.06-2.43.06c-.31,0-.41-.09-.41-.28,0-.15.1-.28.23-.28s.36.06.54.06c1.13,0,1.72-1.11,1.74-1.97l.46-13.5c0-.37.26-.43.36-.09l.23.71c.05.19.08.31.08.46M1279.25,9.03l-5.2,15.47c-.03.06-.1.12-.21.12s-.18-.06-.2-.12l-6.33-18.15c-.56-1.51-1.54-2.28-2.28-2.28-.23,0-.51.06-.64.06s-.23-.12-.23-.28c0-.19.1-.28.41-.28.1,0,.61.06,1.82.06h2.23c.33,0,.41.12.56.4l5.48,15.65c.05.12.08.22.13.22s.1-.15.15-.31l4-11.9c.1-.34.36-.28.36.09l.03.77c0,.15-.03.28-.08.46M1280.53,3.63h2.82c1.02,0,1.41-.06,1.51-.06.31,0,.41.09.41.28,0,.15-.1.28-.23.28s-.36-.06-.54-.06c-1.13,0-1.69,1.11-1.66,1.97l.51,15.93c.03.86.54,1.97,1.67,1.97.18,0,.41-.06.54-.06s.23.12.23.28c0,.19-.1.28-.38.28-.2,0-1.51-.06-3.33-.06-1.56,0-3.07.06-3.25.06-.31,0-.41-.09-.41-.28,0-.15.1-.28.23-.28s.36.06.54.06c1.13,0,1.69-1.11,1.66-1.97l-.61-18.12c.03-.09.13-.22.31-.22"/>
        <path class="cls-4" d="M1291.6,24.59c-2.84-.46-4.89-3.3-4.89-6.78s2.05-6.35,4.89-6.75c.21-.03.36.12.36.31,0,.22-.08.31-.23.4-1.67.49-2.82,3.02-2.82,6.04s1.18,5.55,2.82,6.04c.23.12.23.31.23.4,0,.19-.15.37-.36.34"/>
        <path class="cls-4" d="M1292.96,23.85c1.67-.49,2.82-2.99,2.82-6.04s-1.15-5.55-2.82-6.04c-.13-.06-.23-.18-.23-.34,0-.22.15-.43.36-.4,2.82.46,4.87,3.3,4.89,6.78-.03,3.48-2.05,6.35-4.89,6.75-.21.03-.36-.15-.36-.37,0-.15.1-.28.23-.34"/>
        <path class="cls-4" d="M1299.08,24.02c.1,0,.23.03.35.03.85,0,1.08-.57,1.08-1.42v-10.57c-.2,0-1.1.06-1.31.06-.15,0-.23-.18-.23-.33s.08-.33.23-.33c.2,0,1.1.06,1.31.06v-2.45c0-2.84,1-4.8,2.76-5.35.2-.06.33,0,.33.12s-.08.24-.2.36c-.63.57-.73,1.93-.73,3.32v3.99h1.71c.18,0,.3.12.3.27s-.13.27-.3.27h-1.71v10.57c0,.85.23,1.42,1.08,1.42.13,0,.25-.03.35-.03s.18.09.18.21-.08.21-.18.21c-.85,0-1.68-.06-2.51-.06s-1.68.06-2.51.06c-.1,0-.18-.09-.18-.21s.08-.21.18-.21M1304.72,3.57c1.48.12,2.54.85,2.54,2.33,0,.75-.45,1.33-1.08,1.33-.68,0-1.23-.54-1.23-1.63,0-.54-.08-1.12-.33-1.42-.13-.12-.2-.24-.2-.39,0-.12.1-.21.3-.21M1305.73,11.52c1.68,0,2.74-1.03,2.74-2.63,0-.27-.03-.57-.03-.75s.15-.33.3-.33.3.15.3.33c0,.36-.05.6-.05,1.27v2.11l2.61-.06c.18,0,.23.18.23.33s-.05.33-.23.33l-2.61-.06v9.75c0,1.63.35,2.05,1.1,2.05,1.26,0,1.66-1.15,1.98-1.15.15,0,.28.15.28.33,0,.33-.78,1.57-2.91,1.57-1.71,0-2.61-.88-2.61-2.81v-9.21c0-.36-.1-.54-.45-.54h-.65c-.18,0-.3-.12-.3-.27s.13-.27.3-.27"/>
      </g>
    </g>
    <g>
      <g id="uuid-016bc935-1d15-4f1c-b780-76feb998c426" data-name="Capa 1-2">
        <g>
          <rect x="1059.29" y="37.33" width="31.54" height="31.54"/>
          <g>
            <path class="cls-2" d="M1060.7,51.61h7.47c.64,0,.95-.29.95-.76s-.31-.74-.97-.74h-3.41c-2.41,0-4.36-1.65-4.36-4.55,0-3.33,2.28-4.55,4.59-4.55h8.52v3.81h-7.34c-.56,0-.95.21-.95.72s.39.76.95.76h3.21c2.76,0,4.59,1.62,4.59,4.52,0,2.74-2.06,4.59-4.73,4.59l-8.49-.07v-3.74s0,0,0,0Z"/>
            <path class="cls-2" d="M1074.94,48.94v-7.92h4.81v7.84c0,1.81.95,2.76,2.41,2.76s2.34-.95,2.34-2.76v-7.84h4.81v7.92c0,4.85-3.41,6.68-7.26,6.68s-7.12-1.83-7.12-6.68"/>
            <polygon class="cls-2" points="1060.72 56.89 1063.57 56.89 1065.63 59.51 1065.74 59.51 1067.8 56.89 1070.65 56.89 1070.65 65.19 1067.84 65.19 1067.84 60.58 1067.76 60.58 1065.76 62.82 1065.62 62.82 1063.61 60.58 1063.53 60.58 1063.53 65.19 1060.72 65.19 1060.72 56.89"/>
            <path class="cls-2" d="M1077.65,64.23h-2.99l-.27.96h-3.16l2.77-8.3h4.31l2.77,8.3h-3.16l-.27-.96h0ZM1077.03,62.01l-.81-2.9h-.14l-.81,2.9h1.76Z"/>
            <path class="cls-2" d="M1081.6,62.97h4.78c.36,0,.51-.19.51-.43,0-.26-.16-.4-.52-.4h-2.15c-1.56,0-2.76-.8-2.76-2.62,0-1.92,1.58-2.63,2.91-2.63h4.97v2.22h-4.53c-.34,0-.48.18-.48.4s.14.41.48.41h1.84c1.98,0,3.12,1.02,3.12,2.57s-1.18,2.7-3.07,2.7h-5.08v-2.22h0Z"/>
          </g>
        </g>
      </g>
      <g>
        <polyline points="52.44 46.16 50.15 46.16 50.15 64.57 52.54 64.57 52.55 46.16 52.44 46.16"/>
        <path d="M58.59,46.16h-4.38v2.39h.11s2.85,0,4.26.02c1.57.03,2.74,1.18,2.74,2.69s-1.44,2.69-2.74,2.71c-1.48.02-4.24.02-4.26.02h-.11v2.39s4.36,0,4.36,0c1.34.03,2.62-.49,3.6-1.45,1-.98,1.55-2.28,1.55-3.66s-.54-2.72-1.52-3.69c-.96-.94-2.24-1.44-3.62-1.42"/>
        <polyline points="86.71 46.16 84.43 46.16 84.43 64.58 86.82 64.58 86.82 46.16 86.71 46.16"/>
        <polyline points="104.07 46.16 89.69 46.16 89.69 48.55 104.18 48.55 104.18 46.16 104.07 46.16"/>
        <polyline points="98.01 50.15 95.75 50.15 95.75 64.57 98.11 64.57 98.11 50.15 98.01 50.15"/>
        <path d="M32.66,51.04c0,4.44,3.94,5.22,6.29,5.29h.12s0-2.38,0-2.38h-.1c-2.52-.23-3.75-1.17-3.75-2.89,0-2.71,3.06-3,4.37-3,2.3,0,3.86.87,4.4,2.45.12.36.19.78.2.98v.11s.12,0,.12,0c.06,0,1.72,0,2.35,0h.11v-.11c0-.24-.07-1.06-.39-1.92-.9-2.4-3.41-3.84-6.73-3.84s-6.98,1.65-6.98,5.32"/>
        <path d="M40.74,54.2v2.27s.09,0,.09,0c1.89.19,4.06.72,4.06,3.1s-2.6,3.2-4.84,3.2c-2.71,0-4.04-.72-4.75-2.57-.25-.65-.27-1.48-.27-1.72v-.11h-2.6v.11c0,.3.02,1.36.32,2.28.98,3,3.36,4.46,7.29,4.46,3.61,0,7.26-1.74,7.26-5.62s-3.51-5.24-6.45-5.51h-.12s0,.11,0,.11"/>
        <path d="M76.4,46.16h-5.17v2.39h.11s3.63,0,5.05.03c1.57.03,2.75,1.18,2.75,2.69s-1.45,2.69-2.74,2.71c-1.48.02-5.03.02-5.06.02h-.11v2.39h5.16c1.34.03,2.62-.49,3.6-1.45,1-.98,1.55-2.28,1.55-3.66s-.54-2.72-1.52-3.69c-.95-.94-2.24-1.45-3.61-1.42"/>
        <polyline points="69.44 46.16 67.16 46.16 67.16 64.57 69.55 64.57 69.55 46.16 69.44 46.16"/>
        <polyline points="78.06 57.57 75.3 57.57 79.67 64.57 82.5 64.57 78.12 57.57 78.06 57.57"/>
        <polyline points="28.71 46.16 15.52 46.16 15.52 48.55 28.82 48.55 28.82 46.16 28.71 46.16"/>
        <polyline points="28.71 53.98 15.52 53.98 15.52 56.38 28.82 56.38 28.82 53.98 28.71 53.98"/>
        <polyline points="28.71 62.18 15.52 62.18 15.52 64.57 28.82 64.57 28.82 62.18 28.71 62.18"/>
      </g>
      <g>
        <g>
          <g>
            <path d="M273.26,52.32c0,.56-.15,1.11-.45,1.63-.3.52-.75.97-1.37,1.33.39.13.76.3,1.12.52.35.22.66.48.93.79.27.3.48.65.64,1.04.16.39.24.82.24,1.29,0,.54-.09,1.04-.27,1.51-.18.47-.44.88-.77,1.24-.33.36-.73.66-1.19.89-.46.23-.97.38-1.54.44-.48.04-.99.06-1.53.06h-4.82v-14.42h4.87c.6,0,1.15.1,1.65.29.5.19.94.45,1.31.78.37.33.66.72.86,1.16.2.44.31.93.31,1.45ZM266.53,54.73h2.25c.28,0,.55-.06.82-.18.27-.12.51-.28.71-.5.2-.21.37-.46.49-.74.12-.28.19-.58.19-.89s-.05-.59-.16-.85c-.11-.26-.25-.49-.44-.69-.18-.2-.4-.35-.66-.46-.25-.11-.52-.17-.8-.17h-2.4v4.48ZM269.72,61.45c.36,0,.69-.07.98-.21.29-.14.54-.33.74-.56.2-.23.36-.51.46-.82.1-.31.15-.64.15-.98,0-.89-.3-1.54-.91-1.94-.6-.4-1.43-.6-2.48-.6h-2.14v5.11h3.19Z"/>
            <path d="M269.07,63.49h-5.24v-15.28h5.3c.65,0,1.25.11,1.8.31.55.21,1.03.5,1.44.86.41.37.74.81.97,1.31.23.5.34,1.05.34,1.63,0,.64-.17,1.26-.5,1.84-.21.38-.5.72-.86,1.02.16.08.31.16.46.26.39.24.73.53,1.03.87.3.34.54.73.71,1.16.18.44.27.93.27,1.45,0,.59-.1,1.15-.3,1.66-.2.52-.49.98-.86,1.38-.37.4-.81.73-1.31.98-.5.26-1.07.42-1.69.48-.49.04-1.02.07-1.57.07ZM264.68,62.63h4.39c.52,0,1.02-.02,1.49-.06.51-.05.97-.18,1.38-.39.41-.21.77-.48,1.07-.8.3-.32.53-.69.69-1.11.16-.42.24-.87.24-1.35,0-.41-.07-.79-.21-1.12-.14-.34-.33-.65-.57-.92-.24-.27-.52-.51-.84-.7-.32-.2-.67-.36-1.02-.48l-.89-.29.8-.48c.54-.33.95-.72,1.21-1.18.26-.45.39-.93.39-1.42,0-.46-.09-.89-.27-1.27-.18-.39-.43-.73-.76-1.02-.33-.3-.73-.53-1.18-.7-.45-.17-.96-.26-1.5-.26h-4.44v13.57ZM269.72,61.88h-3.62v-5.97h2.57c1.13,0,2.04.23,2.72.68.73.49,1.1,1.26,1.1,2.3,0,.38-.06.76-.17,1.11-.12.36-.3.69-.54.97-.24.28-.54.5-.88.67-.35.17-.74.25-1.17.25ZM266.96,61.02h2.76c.3,0,.56-.06.8-.17.24-.12.44-.27.61-.46.16-.19.29-.41.37-.67.09-.27.13-.55.13-.84,0-.74-.23-1.26-.72-1.58-.53-.35-1.28-.53-2.24-.53h-1.71v4.26ZM268.78,55.16h-2.68v-5.33h2.83c.34,0,.66.07.97.21.31.14.58.33.8.57.22.23.39.51.52.81.13.31.2.66.2,1.02s-.07.72-.22,1.06c-.14.33-.34.62-.58.86-.24.25-.53.45-.84.59-.32.14-.66.22-.99.22ZM266.96,54.3h1.82c.22,0,.43-.05.65-.14.22-.1.41-.23.58-.4.17-.17.3-.38.41-.61.1-.23.15-.47.15-.71s-.04-.48-.13-.69c-.09-.21-.21-.4-.36-.56-.14-.15-.31-.27-.51-.36-.2-.09-.41-.13-.62-.13h-1.97v3.62Z"/>
          </g>
          <g>
            <path d="M285.31,63.06c-.31-.62-.67-1.28-1.09-1.98-.42-.7-.84-1.35-1.27-1.94-.42-.59-.82-1.08-1.2-1.47-.38-.39-.68-.58-.9-.58h-1.46v5.98h-2.27v-14.42h4.54c.64,0,1.23.1,1.78.3.55.2,1.02.48,1.41.84.39.36.7.8.93,1.31.23.52.34,1.09.34,1.73,0,.89-.24,1.67-.72,2.33-.48.66-1.13,1.13-1.94,1.4.38.27.74.63,1.08,1.09.34.46.68.94,1.02,1.45l.26.4,1.99,3.56h-2.49ZM281.54,55.47c.35,0,.67-.07.94-.21.28-.14.52-.33.71-.56.2-.23.35-.51.45-.82.1-.31.15-.64.15-1,0-.38-.07-.73-.2-1.05s-.31-.59-.53-.83-.48-.42-.77-.55c-.29-.13-.61-.2-.94-.2h-1.98v5.22h2.15Z"/>
            <path d="M288.53,63.49h-3.49l-.12-.24c-.3-.61-.66-1.26-1.07-1.95-.42-.69-.84-1.33-1.25-1.91-.41-.57-.8-1.05-1.16-1.42-.42-.43-.59-.45-.59-.45h-1.03v5.98h-3.13v-15.28h4.97c.69,0,1.34.11,1.93.32.6.22,1.12.53,1.55.92.44.4.78.89,1.03,1.46.25.57.37,1.21.37,1.9,0,.98-.27,1.85-.8,2.58-.39.54-.89.97-1.48,1.27.21.21.42.45.62.71.35.47.69.96,1.03,1.47l.28.43,2.34,4.2ZM285.58,62.63h1.5l-1.63-2.91-.25-.39c-.33-.5-.66-.98-1-1.43-.31-.42-.65-.76-.99-1l-.69-.49.8-.27c.73-.24,1.3-.65,1.73-1.24.43-.6.64-1.28.64-2.08,0-.57-.1-1.1-.3-1.56-.2-.46-.48-.85-.83-1.17-.35-.32-.77-.57-1.27-.75-.5-.18-1.05-.27-1.63-.27h-4.11v13.57h1.42v-5.98h1.89c.35,0,.72.22,1.2.71.39.4.81.92,1.24,1.52.43.6.86,1.26,1.28,1.97.37.62.71,1.22.99,1.78ZM281.54,55.9h-2.58v-6.07h2.4c.4,0,.77.08,1.12.24.34.16.65.38.9.65.25.27.46.59.61.96.15.37.23.78.23,1.21,0,.4-.06.78-.18,1.13-.12.36-.3.68-.53.96-.23.28-.52.5-.85.67-.34.17-.72.26-1.14.26ZM279.82,55.04h1.72c.29,0,.53-.05.75-.17.23-.11.42-.27.58-.46.16-.19.29-.42.37-.67.09-.27.13-.56.13-.86,0-.32-.06-.62-.16-.89-.11-.27-.26-.5-.44-.7-.18-.19-.39-.34-.64-.46-.24-.11-.49-.16-.76-.16h-1.55v4.36Z"/>
          </g>
          <g>
            <path d="M302.22,63.06h-2.38l-1.51-3.84h-6.14l-1.53,3.84h-1.99l5.72-14.42h2.12l5.7,14.42ZM297.7,57.61l-1.75-4.38-.63-1.99h-.11l-.66,2.01-1.73,4.35h4.87Z"/>
            <path d="M302.85,63.49h-3.3l-1.51-3.84h-5.56l-1.53,3.84h-2.91l6.06-15.28h2.7l6.04,15.28ZM300.13,62.63h1.46l-5.36-13.57h-1.54l-5.38,13.57h1.07l1.53-3.84h6.72l1.51,3.84ZM298.33,58.04h-6.13l1.95-4.93.75-2.29h.73l.72,2.27,1.98,4.95ZM293.46,57.18h3.61l-1.52-3.82-.28-.89-.31.94-1.49,3.77Z"/>
          </g>
          <g>
            <path d="M306.28,63.06h-1.88v-14.42h2.14l8.06,10.88v-10.88h1.88v14.42h-1.99l-8.21-11.05v11.05Z"/>
            <path d="M316.91,63.49h-2.63l-7.57-10.18v10.18h-2.73v-15.28h2.78l7.42,10.01v-10.01h2.73v15.28ZM314.71,62.63h1.34v-13.57h-1.02v11.75l-8.7-11.75h-1.5v13.57h1.02v-11.92l8.86,11.92Z"/>
          </g>
          <g>
            <path d="M325.11,48.64c1.02,0,1.97.17,2.85.51.88.34,1.65.82,2.3,1.45.66.63,1.17,1.39,1.55,2.27.38.88.57,1.88.57,2.98,0,1.17-.2,2.21-.61,3.11-.41.9-.95,1.65-1.62,2.26-.67.61-1.44,1.07-2.3,1.38-.87.31-1.75.47-2.65.47h-5.22v-14.42h5.13ZM325,61.45c.71,0,1.38-.13,1.99-.38.61-.25,1.14-.62,1.58-1.09.44-.47.79-1.05,1.04-1.72.25-.67.37-1.43.37-2.28,0-.9-.12-1.71-.36-2.43-.24-.71-.58-1.31-1.02-1.8-.44-.49-.97-.86-1.59-1.11-.63-.25-1.32-.38-2.07-.38h-2.69v11.2h2.75Z"/>
            <path d="M325.19,63.49h-5.65v-15.28h5.56c1.07,0,2.08.18,3,.54.93.36,1.75.88,2.45,1.54.69.67,1.25,1.48,1.65,2.41.4.93.6,1.99.6,3.15,0,1.23-.22,2.33-.65,3.28-.43.95-1.01,1.75-1.72,2.4-.71.64-1.53,1.14-2.45,1.46-.91.33-1.85.49-2.8.49ZM320.4,62.63h4.79c.85,0,1.69-.15,2.51-.44.81-.29,1.54-.73,2.16-1.29.62-.57,1.13-1.28,1.51-2.12.38-.84.57-1.82.57-2.93,0-1.04-.18-1.98-.53-2.81-.35-.83-.84-1.54-1.45-2.13-.61-.59-1.34-1.05-2.16-1.36-.83-.32-1.73-.48-2.7-.48h-4.7v13.57ZM325,61.88h-3.18v-12.06h3.11c.81,0,1.56.14,2.24.41.68.28,1.27.69,1.75,1.22.47.53.84,1.19,1.1,1.95.25.76.38,1.62.38,2.57,0,.9-.13,1.71-.4,2.43-.27.72-.65,1.35-1.13,1.86-.48.52-1.07.92-1.73,1.19-.66.28-1.39.41-2.15.41ZM322.67,61.02h2.32c.65,0,1.27-.12,1.82-.35.55-.23,1.04-.56,1.44-.99.4-.43.72-.96.95-1.57.23-.62.34-1.34.34-2.13,0-.85-.11-1.63-.34-2.29-.22-.66-.53-1.21-.93-1.65-.39-.44-.87-.77-1.44-1-.57-.23-1.22-.35-1.91-.35h-2.26v10.34Z"/>
          </g>
          <g>
            <path d="M362.07,48.64v1.61h-4.61v12.81h-2.27v-12.81h-4.63v-1.61h11.51Z"/>
            <path d="M357.89,63.49h-3.13v-12.81h-4.63v-2.47h12.37v2.47h-4.61v12.81ZM355.61,62.63h1.42v-12.81h4.61v-.76h-10.65v.76h4.63v12.81Z"/>
          </g>
          <g>
            <path d="M369.86,48.49c1.03,0,1.99.18,2.87.54.88.36,1.65.86,2.29,1.51.65.65,1.15,1.43,1.52,2.33.36.9.55,1.9.55,2.99s-.19,2.15-.57,3.06c-.38.91-.9,1.68-1.55,2.32-.66.64-1.42,1.13-2.3,1.47-.88.35-1.82.52-2.83.52s-2-.18-2.88-.53c-.89-.35-1.65-.85-2.29-1.49-.64-.64-1.14-1.42-1.51-2.32-.36-.9-.55-1.9-.55-2.99s.19-2.11.56-3.02c.37-.91.88-1.69,1.53-2.34.65-.65,1.41-1.15,2.29-1.51.88-.36,1.84-.54,2.87-.54ZM369.86,61.62c.74,0,1.41-.15,2-.44.59-.29,1.1-.69,1.52-1.2.42-.51.75-1.11.97-1.81.23-.69.34-1.45.34-2.27,0-.86-.12-1.65-.36-2.37-.24-.72-.58-1.33-1-1.84-.43-.51-.94-.9-1.53-1.18-.59-.28-1.24-.41-1.95-.41s-1.41.15-2,.45c-.59.3-1.1.7-1.52,1.22-.42.52-.75,1.13-.97,1.83-.23.7-.34,1.46-.34,2.26,0,.86.12,1.65.36,2.36.24.71.57,1.31,1,1.82.43.5.94.89,1.53,1.17.59.28,1.24.41,1.95.41Z"/>
            <path d="M369.84,63.66c-1.08,0-2.11-.19-3.04-.56-.94-.37-1.76-.91-2.44-1.59-.68-.68-1.22-1.51-1.6-2.46-.38-.95-.58-2.01-.58-3.15s.2-2.22.59-3.18c.39-.96.94-1.79,1.62-2.48.69-.69,1.5-1.23,2.43-1.61.93-.38,1.95-.57,3.03-.57s2.1.19,3.03.57c.93.38,1.75.92,2.43,1.61.69.69,1.23,1.52,1.61,2.47.38.95.58,2.01.58,3.15s-.2,2.27-.6,3.22c-.4.96-.95,1.79-1.65,2.46-.69.67-1.52,1.2-2.45,1.56-.93.36-1.93.55-2.99.55ZM369.86,48.92c-.97,0-1.88.17-2.71.51-.82.34-1.55.81-2.15,1.42-.6.61-1.09,1.35-1.44,2.2-.35.85-.53,1.82-.53,2.86s.17,1.98.51,2.83c.34.85.82,1.58,1.41,2.18.6.6,1.32,1.07,2.15,1.4.83.33,1.75.5,2.73.5s1.85-.16,2.67-.49c.82-.32,1.55-.79,2.16-1.38.61-.59,1.1-1.32,1.45-2.18.36-.85.54-1.83.54-2.9s-.17-1.98-.52-2.83c-.34-.85-.82-1.58-1.42-2.19-.6-.61-1.33-1.08-2.15-1.42-.83-.34-1.74-.51-2.71-.51ZM369.86,62.05c-.77,0-1.49-.15-2.14-.45-.64-.3-1.21-.73-1.67-1.28-.46-.54-.83-1.2-1.08-1.96-.25-.75-.38-1.59-.38-2.5,0-.85.12-1.65.36-2.39.24-.75.59-1.41,1.05-1.97.46-.56,1.02-1.01,1.66-1.33.65-.33,1.38-.49,2.19-.49s1.49.15,2.14.45c.64.3,1.21.74,1.67,1.29.46.55.83,1.21,1.08,1.98.25.76.38,1.6.38,2.51s-.12,1.67-.36,2.41c-.24.74-.6,1.4-1.05,1.95-.46.55-1.02,1-1.66,1.31-.65.32-1.38.48-2.19.48ZM369.84,50.53c-.67,0-1.28.13-1.81.4-.53.27-1,.64-1.38,1.11-.39.47-.69,1.04-.9,1.69-.21.66-.32,1.37-.32,2.13,0,.81.11,1.56.34,2.22.22.65.53,1.22.92,1.68.39.45.85.81,1.39,1.06.53.25,1.13.37,1.77.37s1.28-.13,1.81-.39c.53-.26,1-.63,1.38-1.09.39-.47.69-1.03.89-1.67.21-.65.32-1.37.32-2.14,0-.81-.11-1.56-.34-2.23-.22-.66-.53-1.23-.93-1.7-.39-.46-.85-.82-1.38-1.07-.53-.25-1.13-.37-1.77-.37Z"/>
          </g>
          <g>
            <path d="M388.01,63.06c-.31-.62-.67-1.28-1.09-1.98-.42-.7-.84-1.35-1.27-1.94-.42-.59-.82-1.08-1.2-1.47-.38-.39-.68-.58-.9-.58h-1.46v5.98h-2.27v-14.42h4.54c.64,0,1.23.1,1.78.3.55.2,1.02.48,1.41.84.39.36.7.8.93,1.31.23.52.34,1.09.34,1.73,0,.89-.24,1.67-.72,2.33-.48.66-1.13,1.13-1.94,1.4.38.27.74.63,1.08,1.09.34.46.68.94,1.02,1.45l.26.4,1.99,3.56h-2.49ZM384.25,55.47c.35,0,.67-.07.94-.21.28-.14.52-.33.71-.56.2-.23.35-.51.45-.82.1-.31.15-.64.15-1,0-.38-.07-.73-.2-1.05s-.31-.59-.53-.83c-.22-.23-.48-.42-.77-.55-.29-.13-.61-.2-.94-.2h-1.98v5.22h2.15Z"/>
            <path d="M391.23,63.49h-3.49l-.12-.24c-.3-.61-.66-1.27-1.07-1.95-.42-.69-.84-1.33-1.25-1.91-.41-.57-.8-1.05-1.16-1.42-.42-.43-.59-.45-.59-.45h-1.03v5.98h-3.13v-15.28h4.97c.69,0,1.34.11,1.93.32.6.22,1.12.53,1.55.92.44.4.78.89,1.03,1.46.25.57.37,1.21.37,1.9,0,.98-.27,1.85-.8,2.58-.39.54-.89.97-1.48,1.27.21.21.42.45.62.71.35.46.69.96,1.03,1.47l.28.43,2.34,4.2ZM388.28,62.63h1.5l-1.63-2.91-.25-.39c-.33-.5-.66-.98-1-1.43-.31-.42-.65-.76-.99-1l-.69-.49.81-.27c.73-.24,1.3-.65,1.73-1.24.43-.6.64-1.28.64-2.08,0-.57-.1-1.1-.3-1.56-.2-.46-.48-.85-.83-1.17-.35-.32-.77-.57-1.27-.75-.5-.18-1.05-.27-1.63-.27h-4.11v13.57h1.42v-5.98h1.89c.35,0,.73.23,1.2.71.39.4.81.92,1.24,1.52.43.6.86,1.26,1.28,1.97.37.62.71,1.21.99,1.78ZM384.25,55.9h-2.58v-6.07h2.4c.4,0,.77.08,1.12.24.34.16.65.37.9.65.25.27.46.59.61.96.15.37.23.78.23,1.21,0,.4-.06.78-.18,1.13-.12.36-.3.68-.53.96-.23.28-.52.5-.85.67-.34.17-.72.26-1.14.26ZM382.52,55.04h1.72c.29,0,.53-.05.75-.17.23-.11.42-.27.58-.46.16-.19.29-.42.37-.67.09-.27.13-.56.13-.86,0-.32-.06-.62-.16-.89-.11-.27-.26-.5-.44-.7-.18-.19-.39-.34-.64-.46-.24-.11-.49-.16-.76-.16h-1.55v4.36Z"/>
          </g>
          <g>
            <path d="M401.82,63.06h-9.13v-14.42h8.91v1.61h-6.64v4.58h5.77v1.61h-5.77v5.01h6.86v1.61Z"/>
            <path d="M402.25,63.49h-9.99v-15.28h9.77v2.47h-6.64v3.72h5.77v2.47h-5.77v4.15h6.86v2.47ZM393.12,62.63h8.27v-.76h-6.86v-5.86h5.77v-.76h-5.77v-5.44h6.64v-.76h-8.06v13.57Z"/>
          </g>
        </g>
        <g>
          <path d="M335.85,60.8c.83.39,1.76.73,2.81,1.03,1.05.29,2.05.44,3.02.44.46,0,.92-.06,1.37-.18.45-.12.86-.29,1.22-.51.36-.22.65-.51.88-.86.22-.35.33-.76.33-1.23,0-.43-.12-.82-.36-1.19-.24-.36-.56-.7-.97-1.01-.4-.31-.87-.61-1.4-.88-.53-.27-1.08-.56-1.65-.85-.68-.33-1.36-.68-2.04-1.05-.67-.37-1.28-.8-1.83-1.27s-.99-1.03-1.33-1.65c-.34-.62-.51-1.37-.51-2.23,0-.7.15-1.37.44-1.99.29-.62.73-1.17,1.3-1.64.57-.47,1.29-.84,2.14-1.13.86-.28,1.86-.42,3.01-.42s2.26.14,3.32.42c1.07.28,2.05.6,2.96.97l-.69,2.39c-.79-.39-1.67-.75-2.66-1.07-.99-.32-1.96-.48-2.93-.48-1.19,0-2.08.26-2.69.78-.6.52-.91,1.15-.91,1.89,0,.39.12.74.36,1.06.24.31.56.62.97.91.4.29.87.58,1.39.85.52.27,1.08.55,1.66.82.87.41,1.66.83,2.39,1.26.72.43,1.34.9,1.86,1.42.51.52.91,1.1,1.19,1.75.28.65.42,1.38.42,2.2,0,.7-.15,1.37-.44,2.01-.29.64-.74,1.19-1.33,1.66-.59.47-1.33.85-2.21,1.13-.88.28-1.9.43-3.07.43-.68,0-1.36-.05-2.02-.15-.66-.1-1.29-.21-1.87-.34-.58-.13-1.12-.26-1.6-.41s-.89-.28-1.21-.4l.66-2.46Z"/>
          <path d="M341.89,65.62c-.73,0-1.47-.05-2.18-.16-.69-.1-1.34-.22-1.95-.35-.61-.13-1.17-.28-1.68-.43-.51-.15-.92-.29-1.26-.41l-.92-.34,1.25-4.65,1.16.55c.77.36,1.65.69,2.64.96.95.27,1.87.4,2.73.4.37,0,.74-.05,1.11-.14.35-.09.66-.22.93-.39.22-.14.4-.31.53-.53.11-.18.17-.39.17-.66,0-.22-.06-.41-.18-.59-.18-.26-.42-.52-.73-.76-.35-.27-.76-.53-1.24-.77-.53-.27-1.08-.55-1.64-.85-.69-.34-1.39-.7-2.07-1.07-.74-.41-1.42-.88-2.02-1.41-.64-.56-1.16-1.21-1.56-1.94-.43-.78-.65-1.7-.65-2.74,0-.86.18-1.68.54-2.44.36-.77.89-1.45,1.59-2.02.67-.55,1.51-.99,2.49-1.31.96-.32,2.09-.48,3.34-.48s2.44.15,3.59.45c1.11.29,2.15.63,3.09,1.01l.9.36-1.32,4.55-1.15-.57c-.74-.37-1.58-.71-2.51-1.01-.87-.29-1.75-.43-2.6-.43-.92,0-1.59.17-1.99.52-.37.32-.53.65-.53,1.08,0,.16.04.28.14.4.18.23.43.47.75.7.36.26.78.52,1.26.77.51.27,1.05.53,1.62.8.9.42,1.73.86,2.48,1.31.8.47,1.5,1.01,2.07,1.59.6.61,1.08,1.31,1.41,2.07.34.78.51,1.66.51,2.63,0,.86-.18,1.68-.54,2.46-.36.79-.91,1.48-1.64,2.05-.69.55-1.55.99-2.54,1.31-.98.32-2.12.48-3.4.48ZM336.48,62.56c.07.02.15.05.22.07.46.14.97.27,1.52.39.56.12,1.16.23,1.8.32.61.09,1.24.14,1.87.14,1.05,0,1.97-.13,2.74-.37.75-.24,1.38-.56,1.87-.95.46-.37.8-.78,1.02-1.26.23-.5.34-1.01.34-1.56,0-.67-.11-1.26-.33-1.77-.23-.52-.56-1-.97-1.42-.45-.45-1-.87-1.64-1.26-.69-.41-1.47-.82-2.3-1.21-.59-.28-1.16-.56-1.7-.84-.57-.3-1.08-.61-1.52-.93-.48-.35-.88-.73-1.18-1.12-.39-.5-.59-1.08-.59-1.71,0-1.05.44-1.99,1.28-2.7.8-.69,1.94-1.04,3.39-1.04,1.08,0,2.17.18,3.26.54.58.19,1.13.39,1.64.6l.07-.26c-.61-.21-1.25-.41-1.93-.59-.97-.26-2-.38-3.05-.38s-1.93.12-2.67.37c-.73.24-1.33.56-1.8.94-.45.37-.78.78-1.01,1.26-.23.49-.34.99-.34,1.54,0,.67.13,1.25.38,1.71.28.51.65.97,1.1,1.37.48.42,1.03.81,1.64,1.14.66.36,1.33.71,1.99,1.03h.03c.56.31,1.11.59,1.64.86.59.3,1.12.63,1.57.99.49.38.9.81,1.2,1.26.36.54.54,1.14.54,1.78s-.17,1.28-.5,1.8c-.31.49-.72.89-1.22,1.2-.45.28-.96.49-1.52.64-.54.14-1.09.21-1.64.21-1.06,0-2.17-.16-3.31-.48-.64-.18-1.24-.38-1.81-.59l-.08.3Z"/>
        </g>
      </g>
      <g>
        <g>
          <path d="M437.23,61.78c-2.05,0-3.63-.6-4.73-1.8-1.1-1.2-1.65-2.93-1.65-5.18,0-1.12.14-2.13.42-3.02.28-.89.69-1.65,1.24-2.27.55-.62,1.21-1.09,2-1.42.79-.33,1.69-.49,2.72-.49s1.92.16,2.71.49c.79.33,1.46.8,1.99,1.43.53.63.94,1.39,1.22,2.29.28.9.42,1.92.42,3.05,0,2.29-.54,4.02-1.63,5.18-1.09,1.16-2.66,1.74-4.71,1.74ZM437.23,59.4c.49,0,.96-.09,1.4-.27.44-.18.82-.45,1.15-.82.33-.37.58-.84.77-1.41.19-.57.28-1.25.28-2.04,0-1.57-.31-2.77-.92-3.58-.61-.81-1.51-1.22-2.68-1.22s-2.07.41-2.7,1.22c-.63.81-.94,2.01-.94,3.58s.32,2.72.95,3.45c.63.73,1.53,1.09,2.69,1.09Z"/>
          <path d="M452.2,48.04h2.84v8.86c0,1.61-.47,2.83-1.42,3.65-.95.82-2.3,1.23-4.04,1.23-1.61,0-2.89-.39-3.83-1.16-.94-.77-1.41-1.96-1.41-3.56v-9.02h2.82v8.76c0,.83.21,1.48.62,1.96.41.48,1,.72,1.76.72,1.77,0,2.66-.86,2.66-2.58v-8.86Z"/>
          <path d="M459.58,61.32v-10.97h-4v-2.32h10.81v2.32h-4.02v10.97h-2.78Z"/>
          <path d="M466.94,61.32v-13.29h2.78v10.86h6.58v2.42h-9.36Z"/>
          <path d="M476.87,61.32v-13.29h9.76v2.32h-7.06v2.84h6.5v2.34h-6.5v3.42h7.38v2.36h-10.08Z"/>
          <path d="M491.04,61.32v-10.97h-4v-2.32h10.81v2.32h-4.02v10.97h-2.78Z"/>
        </g>
        <g>
          <path d="M505.27,61.28v-10.97h-4v-2.32h10.81v2.32h-4.02v10.97h-2.78Z"/>
          <path d="M518.24,61.74c-2.05,0-3.63-.6-4.73-1.8-1.1-1.2-1.65-2.93-1.65-5.18,0-1.12.14-2.13.42-3.02.28-.89.69-1.65,1.24-2.27.55-.62,1.21-1.09,2-1.42.79-.33,1.69-.49,2.72-.49s1.92.16,2.71.49c.79.33,1.46.8,1.99,1.43.53.63.94,1.39,1.22,2.29.28.9.42,1.92.42,3.05,0,2.29-.54,4.02-1.63,5.18-1.09,1.16-2.66,1.74-4.71,1.74ZM518.24,59.36c.49,0,.96-.09,1.4-.27s.82-.45,1.15-.82c.33-.37.58-.84.77-1.41.19-.57.28-1.25.28-2.04,0-1.57-.31-2.77-.92-3.58-.61-.81-1.51-1.22-2.68-1.22s-2.07.41-2.7,1.22c-.63.81-.94,2.01-.94,3.58s.32,2.72.95,3.45c.63.73,1.53,1.09,2.69,1.09Z"/>
          <path d="M525.34,61.28v-13.29h5.14c.89,0,1.72.15,2.48.45.76.3,1.41.73,1.95,1.29.54.56.96,1.24,1.27,2.04.31.8.46,1.71.46,2.72s-.14,1.94-.41,2.77c-.27.83-.66,1.55-1.17,2.14-.51.59-1.11,1.05-1.82,1.38-.71.33-1.49.49-2.34.49h-5.56ZM530.35,59.02c1.21,0,2.09-.38,2.64-1.13.55-.75.82-1.88.82-3.39,0-.75-.07-1.39-.2-1.92s-.35-.97-.65-1.31c-.3-.34-.68-.59-1.15-.74-.47-.15-1.03-.23-1.7-.23h-2.06v8.72h2.3Z"/>
          <path d="M543.61,61.74c-2.05,0-3.63-.6-4.73-1.8-1.1-1.2-1.65-2.93-1.65-5.18,0-1.12.14-2.13.42-3.02.28-.89.69-1.65,1.24-2.27.55-.62,1.21-1.09,2-1.42.79-.33,1.69-.49,2.72-.49s1.92.16,2.71.49c.79.33,1.46.8,1.99,1.43.53.63.94,1.39,1.22,2.29.28.9.42,1.92.42,3.05,0,2.29-.54,4.02-1.63,5.18-1.09,1.16-2.66,1.74-4.71,1.74ZM543.61,59.36c.49,0,.96-.09,1.4-.27.44-.18.82-.45,1.15-.82.33-.37.58-.84.77-1.41.19-.57.28-1.25.28-2.04,0-1.57-.31-2.77-.92-3.58-.61-.81-1.51-1.22-2.68-1.22s-2.07.41-2.7,1.22c-.63.81-.94,2.01-.94,3.58s.32,2.72.95,3.45c.63.73,1.53,1.09,2.69,1.09Z"/>
          <path d="M564.88,61.28l-.84-2.74h-4.9l-.94,2.74h-2.94l4.74-13.29h3.22l4.68,13.29h-3.02ZM561.58,50.98h-.02l-1.7,5.28h3.38l-1.66-5.28Z"/>
          <path d="M568.42,61.28v-13.29h2.78v10.86h6.58v2.42h-9.36Z"/>
          <path d="M583.39,56.06l.28-8.06h8.18v2.2h-5.86l-.12,3.56c.35-.37.75-.62,1.21-.75.46-.13.94-.19,1.43-.19.53,0,1.04.09,1.51.28.47.19.88.46,1.22.81.34.35.61.79.81,1.31.2.52.3,1.11.3,1.78,0,.72-.11,1.37-.34,1.95-.23.58-.54,1.08-.94,1.49-.4.41-.88.73-1.44.96-.56.23-1.18.34-1.86.34-.6,0-1.16-.1-1.69-.29-.53-.19-.99-.46-1.39-.8-.4-.34-.72-.75-.95-1.22-.23-.47-.36-1-.39-1.57h2.6c.05.56.24.99.56,1.3.32.31.74.46,1.26.46.72,0,1.23-.23,1.53-.68.3-.45.45-1.06.45-1.82,0-.69-.15-1.23-.45-1.62-.3-.39-.76-.58-1.37-.58-.47,0-.85.1-1.14.29-.29.19-.53.48-.72.85h-2.68Z"/>
          <path d="M597.39,61.74c-.72,0-1.36-.14-1.92-.42-.56-.28-1.03-.71-1.42-1.29-.39-.58-.68-1.32-.88-2.22-.2-.9-.3-1.98-.3-3.23s.1-2.3.3-3.19c.2-.89.49-1.61.88-2.18.39-.57.86-.98,1.42-1.25.56-.27,1.2-.4,1.92-.4s1.36.13,1.93.4,1.05.68,1.44,1.24c.39.56.7,1.28.91,2.16.21.88.32,1.94.32,3.18,0,2.47-.41,4.29-1.23,5.45-.82,1.17-1.94,1.75-3.37,1.75ZM597.47,59.64c.32,0,.6-.09.83-.27.23-.18.43-.47.58-.86.15-.39.27-.91.35-1.54.08-.63.12-1.4.12-2.31s-.04-1.7-.12-2.34c-.08-.64-.2-1.16-.35-1.55-.15-.39-.35-.68-.58-.86-.23-.18-.51-.27-.83-.27s-.6.09-.83.26c-.23.17-.43.46-.59.85-.16.39-.28.91-.36,1.54-.08.63-.12,1.41-.12,2.33s.04,1.7.12,2.34c.08.64.2,1.16.36,1.56.16.4.36.69.59.86.23.17.51.26.83.26Z"/>
          <path d="M609.49,51.13c0,.45-.09.88-.26,1.28-.18.4-.41.75-.71,1.05-.3.3-.65.53-1.05.71-.4.18-.83.26-1.28.26s-.88-.09-1.28-.26c-.4-.18-.75-.41-1.05-.71-.3-.3-.53-.65-.71-1.05-.18-.4-.26-.83-.26-1.28s.09-.88.26-1.28c.18-.4.41-.75.71-1.05.3-.3.65-.53,1.05-.71.4-.18.83-.26,1.28-.26s.88.09,1.28.26c.4.18.75.41,1.05.71.3.3.53.65.71,1.05.18.4.26.83.26,1.28ZM615.14,48.1l-8.83,13.94h-2.06l8.83-13.94h2.06ZM607.51,51.13c0-.36-.13-.67-.39-.93-.26-.26-.57-.39-.93-.39s-.67.13-.93.39c-.26.26-.39.57-.39.93s.13.67.39.93c.26.26.57.39.93.39s.67-.13.93-.39.39-.57.39-.93ZM616.97,58.28c0,.45-.09.88-.26,1.28-.18.4-.41.75-.71,1.05-.3.3-.65.53-1.05.71-.4.18-.83.26-1.28.26s-.89-.09-1.29-.26-.75-.41-1.05-.71c-.3-.3-.53-.65-.7-1.05-.17-.4-.26-.83-.26-1.28s.08-.89.26-1.29c.17-.4.4-.75.7-1.05.3-.3.65-.53,1.05-.7.4-.17.83-.26,1.29-.26s.88.09,1.28.26c.4.17.75.4,1.05.7.3.3.53.65.71,1.05.18.4.26.83.26,1.29ZM614.99,58.28c0-.36-.13-.67-.39-.93-.26-.26-.57-.39-.93-.39s-.67.13-.93.39c-.26.26-.39.57-.39.93s.13.67.39.93c.26.26.57.39.93.39s.67-.13.93-.39c.26-.26.39-.57.39-.93Z"/>
        </g>
      </g>
      <g>
        <path d="M717.35,55.14c0-.9.22-1.82.67-2.77.45-.95,1.06-1.81,1.84-2.59.77-.76,1.65-1.39,2.67-1.87,1.02-.49,2.09-.73,3.22-.73.87-.01,1.65.12,2.34.4.66.29,1.26.73,1.78,1.3.02.01.05.04.11.07.03,0,.07-.01.13-.05l1.15-.9,1.12-.9h.02s.03-.02.04-.02h.22c.06,0,.1.01.11.04.04.03.07.07.07.13l.09,6.35s0,.08-.02.11c-.03.04-.07.07-.11.07-.04.03-.08.03-.11,0-.04-.01-.07-.04-.09-.09-.43-.78-.86-1.54-1.3-2.28-.44-.74-.92-1.4-1.44-1.97-1.13-1.04-2.12-1.63-2.98-1.77-.97-.1-1.63.54-1.96,1.92-.18.66-.29,1.43-.33,2.32-.04.88-.05,1.85-.02,2.89.01,2.79.22,4.75.62,5.87.41,1.16,1.15,1.74,2.21,1.74,1.25,0,2.35-.51,3.31-1.52.82-.93,1.41-2.13,1.77-3.62.03-.09.06-.14.09-.15.03-.03.07-.04.11-.04s.1.02.15.04c.03.03.04.08.04.15-.38,1.94-1.22,3.41-2.52,4.41-1.18.93-2.53,1.39-4.06,1.39-1.31,0-2.51-.24-3.6-.71-1.09-.47-2.03-1.07-2.82-1.81-1.69-1.62-2.53-3.42-2.53-5.41Z"/>
        <path d="M737.63,51.95c.31.07.62.31.92.71.34.43.51.88.51,1.37.01.59-.25,1.09-.79,1.5-.53.38-1.08.57-1.66.57-.7,0-1.32-.18-1.83-.53-.55-.37-.82-.84-.82-1.43,0-.6.19-1.1.57-1.5.38-.4.86-.72,1.43-.97.57-.23,1.19-.4,1.85-.51.66-.1,1.26-.15,1.81-.15.71,0,1.5.03,2.37.1.88.07,1.69.23,2.44.5.75.27,1.38.68,1.9,1.24.51.56.78,1.35.79,2.36l.04,2.89.02,2.87c0,.19.07.32.22.37.15.05.26,0,.33-.13.21-.37.37-.81.51-1.32.07-.38.11-.86.11-1.43,0-.19.08-.29.24-.29.16-.02.24.08.24.29.01,1.34-.34,2.43-1.06,3.26-.69.79-1.54,1.19-2.54,1.19-.81,0-1.54-.18-2.18-.53-.51-.31-.93-.71-1.26-1.21-.03-.06-.07-.1-.11-.11-.09-.03-.15,0-.18.07-.35.52-.88.95-1.59,1.3-.71.32-1.39.49-2.05.49-1.15,0-2.11-.28-2.89-.84-.81-.6-1.22-1.35-1.23-2.23,0-.7.13-1.26.39-1.65.26-.4.59-.7.98-.93.4-.19.83-.32,1.31-.38.48-.06.93-.09,1.36-.09,1.53,0,2.59-.21,3.18-.64.53-.38.8-1.06.8-2.03,0-.78-.18-1.4-.53-1.88-.43-.49-1.09-.74-1.99-.77h-.73c-.27.03-.55.07-.86.13-.12.03-.18.09-.18.18,0,.1.04.16.13.18ZM739.37,61.31c0,.09.04.19.13.31.1.09.21.13.33.13.35,0,.68-.1.97-.29.35-.29.6-.71.75-1.23.09-.37.13-.87.13-1.5,0-.29,0-.63.01-1,0-.38.01-.78.01-1.23.01-.1-.02-.18-.09-.24-.07-.03-.12-.02-.13.02-.46.26-.83.46-1.11.59-.29.13-.5.33-.65.6-.15.29-.25.72-.3,1.29-.05.57-.07,1.42-.05,2.55Z"/>
        <path d="M756.02,62.33c0,.06.02.1.05.13.03.03.07.04.13.04h1.01s.08.02.11.07c.04.01.07.05.07.11v.11s-.02.09-.07.13c-.03.03-.07.04-.11.04-.66-.03-1.31-.05-1.96-.07-.65-.02-1.3-.02-1.94-.02-.65,0-1.29,0-1.94.02-.65.01-1.29.04-1.92.06-.03,0-.07-.01-.13-.04-.03-.06-.04-.1-.04-.13v-.11s.01-.08.04-.11c.04-.04.09-.07.13-.07h.93c.06,0,.1-.01.13-.04.04-.04.07-.09.07-.13v-10.45c0-.06-.01-.1-.04-.13-.03-.03-.07-.04-.13-.04h-.9c-.07,0-.12-.02-.15-.04-.03-.03-.04-.08-.04-.15v-.09c0-.06.02-.11.04-.14.03-.04.08-.06.15-.06h6.31c.07,0,.13.02.17.05.04.03.05.09.05.18v1.01c0,.08.02.13.07.17.04.04.1.06.15.06s.1-.03.13-.09c.32-.57.77-1,1.35-1.28.44-.23.95-.35,1.52-.35.84,0,1.57.33,2.18.99.56.63.84,1.33.84,2.1,0,.74-.26,1.36-.77,1.87-.54.49-1.15.73-1.81.73-.74,0-1.32-.25-1.76-.75-.43-.47-.64-1.01-.64-1.61s.2-1.07.6-1.46c.16-.16.35-.3.56-.42.21-.12.43-.22.65-.31.24-.09.33-.21.29-.37-.09-.13-.24-.2-.44-.2-.75,0-1.38.25-1.88.75-.62.65-.95,1.24-.98,1.78-.04.54-.06.92-.06,1.16v7.12Z"/>
        <path d="M768.98,62.33c0,.06.01.1.04.13.03.03.07.04.13.04h1.01s.08.02.11.07c.04.01.07.05.07.11v.11s-.02.09-.07.13c-.03.03-.07.04-.11.04-.66-.03-1.32-.05-1.96-.07-.65-.02-1.29-.02-1.94-.02-.65,0-1.29,0-1.94.02-.65.01-1.29.04-1.92.06-.03,0-.07-.01-.13-.04-.03-.06-.04-.1-.04-.13v-.11s.02-.08.04-.11c.04-.04.09-.07.13-.07h.93c.06,0,.1-.01.13-.04.04-.04.07-.09.07-.13v-10.45c0-.06-.01-.1-.04-.13-.03-.03-.07-.04-.13-.04h-.91c-.08,0-.12-.02-.15-.04-.03-.03-.04-.08-.04-.15v-.09c0-.06.01-.11.04-.14.03-.04.08-.06.15-.06h6.31c.07,0,.13.02.16.05.04.03.06.09.06.18v1.01c0,.08.02.13.07.17.04.04.1.06.15.06s.1-.03.13-.09c.32-.57.77-1,1.34-1.28.44-.23.95-.35,1.52-.35.84,0,1.57.33,2.18.99.56.63.84,1.33.84,2.1,0,.74-.26,1.36-.77,1.88-.54.48-1.15.73-1.81.73-.74,0-1.32-.25-1.77-.75-.43-.47-.64-1.01-.64-1.61,0-.59.2-1.07.6-1.46.16-.16.35-.3.56-.42.21-.12.43-.22.65-.31.23-.09.33-.21.29-.37-.09-.13-.24-.2-.44-.2-.75,0-1.38.25-1.88.75-.62.65-.94,1.24-.98,1.78-.04.54-.06.92-.06,1.16v7.12Z"/>
        <path d="M788.43,58.32c-.35,1.38-1.1,2.49-2.25,3.33-1.16.88-2.56,1.32-4.19,1.32-1.91,0-3.52-.59-4.83-1.77-1.34-1.15-2.01-2.56-2.01-4.24,0-1.63.67-3.05,2.01-4.26,1.32-1.16,2.93-1.74,4.83-1.74,1.73,0,3.26.51,4.57,1.52,1.29,1.06,2.03,2.32,2.2,3.79v.09s-.01.04-.04.07l-.04.04h-7.5c-.07,0-.12.02-.13.06-.03.03-.04.07-.04.11l-.05,1.74-.02,1.72c0,.79.3,1.39.9,1.78.6.39,1.3.53,2.09.41.79-.13,1.58-.52,2.36-1.17.78-.65,1.35-1.61,1.72-2.89.01-.07.04-.12.07-.13-.02.01.02,0,.11-.04l.02.02h.09c.06.03.09.05.09.07.03.03.04.05.04.07v.09ZM783.34,52.63c0-.32-.12-.63-.35-.93-.25-.29-.53-.44-.84-.44-.32,0-.6.15-.84.44-.24.32-.35.63-.35.93v3.33s.02.09.07.13c.03.03.07.04.13.04h1.99c.06,0,.1-.01.13-.04.04-.04.07-.09.07-.13v-3.33Z"/>
        <path d="M795.79,62.34c0,.06.01.1.04.13.03.03.07.04.13.04h1.02s.08.02.11.07c.04.01.07.05.07.11v.11s-.02.09-.07.13c-.03.03-.07.04-.11.04-.66-.03-1.32-.05-1.96-.07-.65-.02-1.29-.02-1.94-.02-.65,0-1.29,0-1.94.02-.65.01-1.29.04-1.92.06-.03,0-.07-.01-.13-.04-.03-.06-.04-.1-.04-.13v-.11s.02-.08.04-.11c.04-.04.09-.07.13-.07h.93c.06,0,.1-.01.13-.04.04-.04.07-.09.07-.13v-10.45c0-.06-.01-.1-.04-.13-.03-.03-.07-.04-.13-.04h-.9c-.07,0-.13-.02-.15-.04-.03-.03-.04-.08-.04-.15v-.09c0-.06.01-.11.04-.14.03-.04.08-.06.15-.06h6.31c.07,0,.13.02.17.05.04.03.06.09.06.18v1.01c0,.08.02.13.07.16.04.04.09.06.15.06s.1-.03.13-.09c.32-.57.77-1,1.35-1.28.44-.23.95-.35,1.52-.35.84,0,1.57.33,2.18.99.56.63.84,1.33.84,2.1,0,.74-.26,1.36-.77,1.87-.54.49-1.15.73-1.81.73-.74,0-1.32-.25-1.76-.75-.43-.47-.64-1.01-.64-1.61,0-.59.2-1.07.6-1.46.16-.16.35-.3.56-.42.21-.12.43-.22.65-.31.23-.09.33-.21.29-.37-.09-.13-.24-.2-.44-.2-.75,0-1.38.25-1.88.75-.62.65-.95,1.24-.98,1.78-.04.54-.05.92-.06,1.16v7.12Z"/>
        <path d="M806.06,51.98c.31.07.62.31.93.71.34.43.51.88.51,1.37.01.59-.25,1.09-.8,1.5-.53.38-1.08.57-1.65.57-.71,0-1.32-.18-1.83-.53-.54-.37-.82-.84-.81-1.43,0-.6.19-1.1.57-1.5.38-.4.86-.72,1.43-.97.57-.23,1.19-.4,1.85-.51.66-.1,1.26-.15,1.81-.15.7,0,1.5.03,2.37.1.88.07,1.69.23,2.44.5.75.27,1.38.68,1.9,1.24.52.56.78,1.34.79,2.36l.04,2.89.02,2.87c0,.19.07.32.22.37.15.05.26,0,.33-.13.21-.37.38-.81.51-1.32.07-.38.11-.86.11-1.43,0-.19.08-.29.24-.29.16-.02.24.08.24.29.02,1.34-.34,2.43-1.06,3.26-.69.79-1.54,1.19-2.54,1.19-.81,0-1.54-.18-2.18-.53-.51-.31-.93-.71-1.26-1.21-.03-.06-.07-.1-.11-.11-.09-.03-.15,0-.18.07-.35.51-.88.95-1.59,1.3-.71.32-1.39.49-2.05.49-1.15,0-2.11-.28-2.89-.84-.81-.6-1.22-1.35-1.23-2.23,0-.7.13-1.26.39-1.65.26-.4.59-.71.98-.93.4-.19.84-.32,1.31-.38.48-.06.93-.09,1.36-.09,1.53,0,2.59-.21,3.18-.64.53-.38.79-1.06.79-2.03,0-.78-.18-1.4-.53-1.88-.43-.49-1.09-.74-1.98-.77h-.73c-.27.03-.55.07-.86.13-.12.03-.18.09-.18.18,0,.1.04.16.13.18ZM807.8,61.33c0,.09.04.19.13.31.1.09.21.13.33.13.35,0,.67-.1.97-.29.35-.29.6-.71.75-1.23.09-.37.13-.87.13-1.5,0-.29,0-.63.01-1,0-.38.01-.78.01-1.23.02-.1-.01-.18-.09-.24-.07-.03-.12-.02-.13.02-.46.26-.83.46-1.11.59-.29.13-.5.33-.65.6-.15.29-.25.72-.3,1.29-.05.57-.07,1.42-.06,2.55Z"/>
      </g>
      <g>
        <path d="M838.33,45.8c0-.28.06-.48.18-.6.12-.12.31-.18.56-.18h2.33c.23,0,.42.06.57.18.14.12.22.32.22.6v1.96c0,.08-.02.17-.06.26-.04.09-.09.18-.16.27-.07.09-.15.16-.25.22-.1.06-.21.09-.33.09h-2.33c-.5,0-.74-.28-.74-.84v-1.96Z"/>
        <path d="M838.33,50.89c0-.21.06-.4.18-.55s.31-.23.56-.23h2.3c.08,0,.17.02.26.06.09.04.18.09.26.16.08.07.15.15.21.25.06.09.09.2.09.32v11.22c0,.25-.07.45-.21.58-.14.13-.34.2-.6.2h-2.3c-.5,0-.74-.26-.74-.77v-11.22Z"/>
        <path d="M844.67,48.37c0-.12.04-.22.12-.31.08-.09.19-.13.33-.13h2.98c.11,0,.22.04.31.12.09.08.14.19.15.32v10.95h5.53c.12,0,.22.04.31.12.09.08.13.19.13.33v2.65c0,.11-.04.22-.12.31-.08.09-.19.14-.33.15h-8.98c-.3,0-.44-.15-.44-.44v-14.06Z"/>
        <path d="M854.79,56.5c0-.62.08-1.21.24-1.78.16-.57.38-1.1.66-1.58.28-.49.63-.93,1.03-1.33s.84-.74,1.33-1.02,1.02-.5,1.58-.65c.57-.15,1.16-.23,1.78-.23.91,0,1.77.17,2.57.51s1.5.8,2.09,1.4c.59.59,1.06,1.29,1.41,2.09.35.8.52,1.67.52,2.6,0,.62-.08,1.21-.24,1.78-.16.57-.38,1.1-.66,1.58-.29.49-.63.93-1.03,1.33s-.84.74-1.33,1.03c-.49.29-1.01.5-1.57.66-.56.15-1.15.23-1.76.23s-1.21-.08-1.78-.23c-.57-.15-1.1-.37-1.58-.66-.49-.28-.93-.63-1.33-1.03-.4-.4-.74-.84-1.03-1.33-.29-.49-.51-1.02-.66-1.58-.16-.57-.24-1.16-.24-1.78ZM858.46,56.5c0,.44.07.86.21,1.24.14.39.33.72.58,1,.25.28.56.5.92.67.36.16.76.25,1.21.25s.83-.08,1.18-.25c.35-.16.65-.39.9-.67.24-.28.43-.62.56-1,.13-.39.2-.8.2-1.24s-.07-.84-.2-1.23c-.13-.39-.32-.73-.56-1.03-.24-.3-.54-.53-.9-.7-.35-.17-.75-.26-1.18-.26s-.85.09-1.21.26c-.36.17-.66.4-.92.7s-.45.64-.58,1.03c-.14.39-.21.8-.21,1.23Z"/>
        <path d="M877.97,62.44c.05-.13.08-.28.09-.44.01-.16.02-.33.02-.5v-.14s0-.06,0-.08c0-.02,0-.05,0-.08v-.14c-.19.21-.39.41-.59.61s-.42.38-.67.54c-.24.16-.52.29-.83.38-.31.1-.67.15-1.08.15-.91,0-1.74-.15-2.52-.46-.77-.31-1.44-.74-2-1.29-.56-.55-1-1.22-1.32-1.99-.32-.77-.47-1.62-.47-2.55s.16-1.78.47-2.58c.32-.8.75-1.5,1.32-2.09.56-.59,1.23-1.06,2-1.4.77-.34,1.61-.51,2.52-.51.42,0,.79.05,1.14.14s.66.22.94.39.54.36.78.58c.23.22.45.46.65.7l.28-.9c.04-.11.08-.22.11-.31s.08-.17.13-.24c.05-.06.12-.11.21-.15.08-.03.19-.05.33-.05h1.5c.09,0,.19.02.28.05.09.03.18.08.26.14.08.06.14.14.19.23.05.09.07.2.07.32v10.24c0,1.05-.17,1.98-.51,2.8-.34.82-.81,1.51-1.4,2.07-.59.56-1.3.99-2.11,1.29-.81.29-1.68.44-2.62.44-.36,0-.75-.03-1.17-.1-.42-.06-.83-.16-1.24-.29-.41-.13-.81-.29-1.2-.49-.39-.2-.73-.43-1.02-.69-.1-.07-.19-.17-.26-.28s-.11-.23-.11-.37c0-.17.06-.35.19-.53l.96-1.32c.09-.1.18-.18.26-.23.08-.05.17-.08.26-.08.15,0,.33.08.55.24.17.16.36.29.58.39.22.1.44.17.67.23.23.06.46.09.68.11.22.02.43.03.61.03.3,0,.62-.04.95-.12.33-.08.64-.2.92-.36.28-.16.54-.35.75-.58.22-.23.37-.49.45-.78ZM872.21,56.46c0,.45.07.87.21,1.25.14.39.33.72.59,1,.25.28.56.5.92.66.36.16.76.24,1.19.24s.83-.08,1.21-.23c.38-.15.71-.36.99-.63.28-.27.51-.58.68-.95.17-.36.27-.75.29-1.18v-.33c-.02-.41-.12-.8-.29-1.16-.17-.37-.4-.69-.68-.97s-.61-.5-.99-.66c-.38-.16-.78-.25-1.21-.25s-.83.09-1.19.26c-.36.17-.67.4-.92.69-.25.29-.45.63-.59,1.02-.14.39-.21.8-.21,1.23Z"/>
        <path d="M883.36,45.8c0-.28.06-.48.18-.6.12-.12.31-.18.56-.18h2.33c.23,0,.42.06.57.18.14.12.22.32.22.6v1.96c0,.08-.02.17-.06.26-.04.09-.09.18-.16.27-.07.09-.15.16-.25.22-.1.06-.21.09-.33.09h-2.33c-.5,0-.74-.28-.74-.84v-1.96Z"/>
        <path d="M883.36,50.89c0-.21.06-.4.18-.55s.31-.23.56-.23h2.3c.08,0,.17.02.26.06.09.04.18.09.26.16.08.07.15.15.21.25.06.09.09.2.09.32v11.22c0,.25-.07.45-.21.58-.14.13-.34.2-.6.2h-2.3c-.5,0-.74-.26-.74-.77v-11.22Z"/>
        <path d="M890.9,58.91c.18.18.38.33.59.46.21.12.41.22.61.3.19.08.37.13.51.17.15.03.25.05.3.05.13,0,.29,0,.49-.02.2-.01.39-.04.57-.09.18-.05.34-.13.47-.25.13-.11.2-.27.2-.48,0-.19-.04-.34-.11-.45s-.18-.2-.32-.28c-.14-.08-.31-.15-.52-.21-.2-.06-.43-.13-.69-.21-.8-.21-1.47-.47-1.99-.77-.52-.3-.94-.64-1.24-1.01-.31-.37-.52-.77-.64-1.2-.12-.43-.18-.88-.18-1.36,0-.56.11-1.06.33-1.52.22-.46.54-.85.95-1.17.41-.33.9-.58,1.47-.75.57-.18,1.2-.27,1.9-.27.42,0,.82.04,1.19.11.37.07.72.18,1.06.33.34.15.66.35.98.58.32.24.64.52.95.85.11.13.17.26.18.38,0,.12-.07.24-.23.38-.26.21-.51.43-.75.63-.24.21-.48.44-.74.69-.08.07-.16.11-.24.13s-.16.01-.23,0c-.07-.02-.14-.05-.21-.1-.07-.05-.13-.1-.18-.17-.23-.26-.5-.44-.8-.53s-.58-.14-.85-.14c-.33,0-.59.06-.78.17-.19.11-.29.29-.27.52.01.17.08.31.2.41.12.1.26.18.43.24.17.06.35.11.54.15.19.04.37.08.53.13.6.19,1.16.41,1.66.63.5.23.94.51,1.31.84s.66.73.86,1.19c.2.46.31,1.03.31,1.69s-.13,1.26-.4,1.78c-.27.52-.63.96-1.09,1.32s-1.01.63-1.64.81c-.63.19-1.32.28-2.05.28-.42,0-.84-.04-1.27-.11-.43-.07-.85-.19-1.25-.36-.4-.16-.78-.38-1.15-.63-.36-.26-.68-.57-.97-.94-.07-.09-.13-.19-.17-.3-.04-.1-.05-.21-.05-.31,0-.1.02-.19.06-.28.04-.08.1-.16.18-.22l1.3-1.3c.16-.13.3-.18.43-.14.12.04.28.15.48.34Z"/>
        <path d="M901.09,48.11c0-.21.07-.36.21-.47.14-.1.33-.2.59-.3l2.28-.79s.07-.01.1-.01h.09c.25,0,.41.07.5.22.08.14.13.33.13.57v2.77s1.37,0,1.37,0c.21,0,.39.06.52.19.13.13.2.32.2.57v1.94c0,.28-.07.49-.2.62-.13.13-.31.2-.52.2h-1.38v8.49c.01.25-.06.45-.21.58s-.35.2-.61.2h-2.27c-.52,0-.77-.26-.77-.77v-8.49h-1.05c-.52,0-.77-.27-.77-.81v-1.94c0-.51.26-.76.77-.76h1.04v-1.98Z"/>
        <path d="M908.63,45.8c0-.28.06-.48.18-.6.12-.12.31-.18.56-.18h2.33c.23,0,.42.06.57.18.14.12.22.32.22.6v1.96c0,.08-.02.17-.06.26-.04.09-.09.18-.16.27-.07.09-.15.16-.25.22-.1.06-.21.09-.33.09h-2.33c-.5,0-.74-.28-.74-.84v-1.96Z"/>
        <path d="M908.63,50.89c0-.21.06-.4.18-.55s.31-.23.56-.23h2.3c.08,0,.17.02.26.06.09.04.18.09.26.16.08.07.15.15.21.25.06.09.09.2.09.32v11.22c0,.25-.07.45-.21.58-.14.13-.34.2-.6.2h-2.3c-.5,0-.74-.26-.74-.77v-11.22Z"/>
        <path d="M922.44,58.95c.09-.07.18-.11.27-.13.08-.02.15-.03.2-.03.11,0,.22.02.31.07.09.05.19.15.29.3l1.13,1.7c.03.05.07.11.1.18.03.07.05.12.05.16,0,.15-.05.28-.15.38s-.2.18-.32.26c-.55.38-1.15.69-1.81.92-.65.23-1.35.35-2.08.35-.6,0-1.19-.08-1.75-.23s-1.08-.37-1.56-.66c-.48-.28-.93-.63-1.33-1.03-.4-.4-.74-.84-1.03-1.33-.28-.49-.5-1.02-.66-1.58-.16-.57-.24-1.16-.24-1.78s.08-1.21.24-1.78c.16-.57.38-1.1.66-1.58.28-.49.62-.93,1.03-1.33.4-.4.85-.74,1.33-1.02.48-.28,1-.5,1.56-.65.56-.15,1.14-.23,1.75-.23.73,0,1.41.1,2.03.29.62.19,1.2.48,1.75.87l-.03-.03c.15.09.26.19.35.31.09.12.13.26.13.44,0,.12-.04.24-.12.37l-.9,1.52c-.19.33-.42.49-.68.49-.06,0-.13-.02-.22-.05-.09-.03-.18-.08-.29-.16-.3-.19-.61-.35-.95-.48s-.7-.19-1.08-.19c-.42,0-.81.09-1.17.26-.36.17-.66.4-.91.7s-.45.64-.59,1.03c-.14.39-.21.8-.21,1.23s.07.86.21,1.24c.14.39.34.72.59,1,.25.28.55.5.91.67.36.16.74.25,1.17.25.38,0,.74-.07,1.08-.2.34-.13.65-.31.96-.51Z"/>
        <path d="M893.46,60.26c.41.03.82.02,1.23-.02.35-.03.77,0,.81.3,0,0,.17,2.23-2.18,2.52,0,0-2.75.5-4.41-1.42-.59-.68-.86-1.57-.75-2.47.15-1.18.8-2.9,3.22-3.68,0,0,5.09-1.81,10.66-1.5.1,0,.2.05.26.12.07.09.1.21-.15.34-.46.23-5.27.57-7.33,1.6-2.06,1.03-2.81,1.32-2.81,2.46,0,0-.11,1.38,1.38,1.72h.08Z"/>
        <g>
          <path class="cls-2" d="M893.41,61.79c-.22.03-.45.06-.68.08-.06,0-.12-.04-.12-.1,0-.06.04-.12.1-.12.01,0,.02,0,.03,0h.01c.21.04.43.09.66.14Z"/>
          <path class="cls-2" d="M891.18,61.58c-.5-.2-.98-.59-1.24-1.12h0c-.08-.17-.02-.36.14-.44.16-.08.36-.02.44.14,0,0,0,0,0,.01.17.39.49.7.89.94.12.07.16.23.09.36-.07.11-.2.15-.32.11Z"/>
          <path class="cls-2" d="M889.7,58.81c.05-.3.15-.55.28-.8.13-.25.29-.47.47-.67.1-.1.26-.11.37-.01.09.09.11.23.04.33h0c-.13.2-.24.4-.33.61-.09.21-.15.43-.18.63h0c-.03.19-.19.31-.37.28-.18-.03-.3-.19-.27-.37h0Z"/>
          <path class="cls-2" d="M891.77,56.47c.23-.06.45-.12.67-.17-.19.13-.38.25-.57.37h-.01c-.05.04-.12.02-.15-.03-.03-.05-.02-.12.04-.15,0,0,.02,0,.03-.01Z"/>
        </g>
      </g>
      <g>
        <g>
          <path class="cls-1" d="M1143.81,55.31v4.22h-1.71v-13.18h3.74c1.06.14,1.96.58,2.69,1.31.87.88,1.31,1.93,1.31,3.16s-.44,2.3-1.31,3.18c-.87.88-1.93,1.31-3.16,1.31h-1.56ZM1143.81,48.06v5.54h1.56c.76,0,1.41-.27,1.95-.81.54-.54.81-1.2.81-1.97s-.27-1.41-.81-1.95c-.54-.54-1.19-.81-1.95-.81h-1.56Z"/>
          <path class="cls-1" d="M1154.81,55.31h-1.56v4.22h-1.71v-13.18h3.74c1.06.14,1.96.58,2.69,1.31.87.88,1.31,1.93,1.31,3.16s-.44,2.3-1.31,3.18c-.6.6-1.07.94-1.38,1.02l2.93,4.51h-2.07l-2.64-4.22ZM1153.25,48.06v5.54h1.56c.76,0,1.41-.27,1.95-.81s.81-1.2.81-1.97-.27-1.41-.81-1.95c-.54-.54-1.19-.81-1.95-.81h-1.56Z"/>
          <path class="cls-1" d="M1172.51,48.15c1.32,1.32,1.98,2.91,1.98,4.77s-.66,3.45-1.98,4.77-2.91,1.98-4.77,1.98-3.45-.66-4.77-1.98c-1.32-1.32-1.98-2.91-1.98-4.77s.66-3.45,1.98-4.77c1.32-1.32,2.91-1.98,4.77-1.98s3.45.66,4.77,1.98ZM1167.74,47.89c-1.39,0-2.58.49-3.56,1.47-.98.98-1.47,2.17-1.47,3.56s.49,2.58,1.47,3.56c.98.98,2.17,1.47,3.55,1.47s2.57-.49,3.56-1.47c.98-.98,1.47-2.17,1.47-3.56s-.49-2.58-1.47-3.56c-.98-.98-2.17-1.47-3.56-1.47Z"/>
          <path class="cls-1" d="M1178.63,46.34v13.18h-1.71v-13.18h1.71Z"/>
          <path class="cls-1" d="M1181.27,46.34h1.56l5.44,9.41v-9.41h1.71v13.18h-1.49l-5.51-9.53v9.53h-1.71v-13.18Z"/>
        </g>
        <g>
          <path class="cls-5" d="M1142.95,61.34h-.78s-.06.03-.06.06v2.97s.03.06.06.06h.17s.06-.03.06-.06v-.97h.44c.28,0,.53-.1.73-.3s.3-.44.3-.73-.1-.53-.3-.73c-.17-.17-.37-.27-.62-.3ZM1142.84,63.11h-.44v-1.48h.44c.21,0,.38.07.52.22.15.15.22.32.22.52s-.07.38-.22.52c-.15.15-.32.22-.52.22Z"/>
          <path class="cls-5" d="M1145.88,62.37c0-.28-.1-.53-.3-.73-.17-.17-.37-.27-.62-.3h-.78s-.06.03-.06.06v2.97s.03.06.06.06h.17s.06-.03.06-.06v-.97h.44s.01,0,.02,0l.64,1s.03.03.05.03h.21s.04-.01.05-.03c.01-.02,0-.04,0-.06l-.64-.99c.15-.05.28-.13.4-.25.2-.2.3-.44.3-.73ZM1144.41,61.63h.44c.21,0,.38.07.52.22.15.15.22.32.22.52s-.07.38-.22.52c-.15.15-.32.22-.52.22h-.44v-1.48Z"/>
          <path class="cls-5" d="M1147.68,61.3c-.43,0-.81.16-1.12.46s-.46.68-.46,1.12.16.81.46,1.12c.31.31.68.46,1.12.46s.81-.16,1.12-.46c.31-.31.46-.68.46-1.12s-.16-.81-.46-1.12c-.31-.31-.68-.46-1.12-.46ZM1147.68,64.18c-.36,0-.66-.13-.91-.38-.25-.25-.38-.56-.38-.91s.13-.66.38-.91c.25-.25.56-.38.91-.38s.66.13.91.38c.25.25.38.56.38.91s-.13.66-.38.91c-.25.25-.56.38-.91.38Z"/>
          <path class="cls-5" d="M1152.32,61.34h-.19s-.04.01-.05.03l-1.06,1.84-1.06-1.84s-.03-.03-.05-.03h-.19s-.04.01-.05.03c-.01.02-.01.04,0,.06v2.94s.03.06.06.06h.17s.06-.03.06-.06v-2.44l1.02,1.76s.08.04.1,0l1.02-1.76v2.44s.03.06.06.06h.17s.06-.03.06-.06v-2.94s0-.04,0-.06c-.01-.02-.03-.03-.05-.03Z"/>
          <path class="cls-5" d="M1154.35,61.3c-.43,0-.81.16-1.12.46s-.46.68-.46,1.12.16.81.46,1.12c.31.31.68.46,1.12.46s.81-.16,1.12-.46c.31-.31.46-.68.46-1.12s-.16-.81-.46-1.12c-.31-.31-.68-.46-1.12-.46ZM1154.35,64.18c-.36,0-.66-.13-.91-.38-.25-.25-.38-.56-.38-.91s.13-.66.38-.91c.25-.25.56-.38.91-.38s.66.13.91.38c.25.25.38.56.38.91s-.13.66-.38.91c-.25.25-.56.38-.91.38Z"/>
          <path class="cls-5" d="M1157.86,61.34h-1.67s-.06.03-.06.06v.17s.03.06.06.06h.69v2.74s.03.06.06.06h.17s.06-.03.06-.06v-2.74h.69s.06-.03.06-.06v-.17s-.03-.06-.06-.06Z"/>
          <path class="cls-5" d="M1159.71,61.3c-.43,0-.81.16-1.12.46s-.46.68-.46,1.12.16.81.46,1.12c.31.31.68.46,1.12.46s.81-.16,1.12-.46.46-.68.46-1.12-.16-.81-.46-1.12c-.31-.31-.68-.46-1.12-.46ZM1159.71,64.18c-.36,0-.66-.13-.91-.38-.25-.25-.38-.56-.38-.91s.13-.66.38-.91.56-.38.91-.38.66.13.91.38c.25.25.38.56.38.91s-.13.66-.38.91c-.25.25-.56.38-.91.38Z"/>
          <path class="cls-5" d="M1163.44,62.37c0-.28-.1-.53-.3-.73-.17-.17-.37-.27-.62-.3h-.78s-.06.03-.06.06v2.97s.03.06.06.06h.17s.06-.03.06-.06v-.97h.44s.01,0,.02,0l.64,1s.03.03.05.03h.21s.04-.01.05-.03c.01-.02,0-.04,0-.06l-.64-.99c.15-.05.28-.13.4-.25.2-.2.3-.44.3-.73ZM1161.97,61.63h.44c.21,0,.38.07.52.22.15.15.22.32.22.52s-.07.38-.22.52-.32.22-.52.22h-.44v-1.48Z"/>
          <path class="cls-5" d="M1164.74,61.31s-.03-.04-.06-.04-.05.02-.06.04l-1.1,3.03s0,.04,0,.05c.01.02.03.03.05.03h.18s.05-.02.06-.04l.4-1.1h.94l.4,1.1s.03.04.06.04h.18s.04,0,.05-.03c.01-.02.01-.04,0-.05l-1.1-3.03ZM1164.68,62l.37,1.01h-.74l.37-1.01Z"/>
          <rect class="cls-5" x="1167.44" y="61.34" width=".29" height="3.08" rx=".06" ry=".06"/>
          <path class="cls-5" d="M1170.14,61.34h-.17s-.06.03-.06.06v2.42l-1.41-2.45s-.03-.03-.05-.03h-.18s-.06.03-.06.06v2.97s.03.06.06.06h.17s.06-.03.06-.06v-2.44l1.43,2.47s.03.03.05.03h.17s.06-.03.06-.06v-2.97s-.03-.06-.06-.06Z"/>
          <path class="cls-5" d="M1173.3,61.34h-.19s-.04.01-.05.03l-1.06,1.84-1.06-1.84s-.03-.03-.05-.03h-.19s-.04.01-.05.03c-.01.02-.01.04,0,.06v2.94s.03.06.06.06h.17s.06-.03.06-.06v-2.44l1.02,1.76s.08.04.1,0l1.02-1.76v2.44s.03.06.06.06h.17s.06-.03.06-.06v-2.94s0-.04,0-.06c-.01-.02-.03-.03-.05-.03Z"/>
          <path class="cls-5" d="M1175.33,61.3c-.43,0-.81.16-1.12.46s-.46.68-.46,1.12.16.81.46,1.12c.31.31.68.46,1.12.46s.81-.16,1.12-.46.46-.68.46-1.12-.16-.81-.46-1.12c-.31-.31-.68-.46-1.12-.46ZM1175.33,64.18c-.36,0-.66-.13-.91-.38-.25-.25-.38-.56-.38-.91s.13-.66.38-.91.56-.38.91-.38.66.13.91.38c.25.25.38.56.38.91s-.13.66-.38.91c-.25.25-.56.38-.91.38Z"/>
          <path class="cls-5" d="M1178.32,62.35c.12-.12.18-.26.18-.4,0-.17-.06-.31-.18-.43-.12-.12-.26-.18-.43-.18h-.53s-.06.03-.06.06v2.97s.03.06.06.06h.57s.01,0,.02,0c.26,0,.5-.11.69-.31.21-.22.31-.47.31-.77s-.11-.55-.31-.76c-.1-.11-.21-.19-.32-.23ZM1178.13,62.18c-.06.05-.12.08-.2.09h-.34v-.64h.3c.1,0,.17.03.24.09.06.06.09.14.09.23s-.03.17-.09.23ZM1177.59,62.57h.29c.22,0,.4.07.55.23.15.15.23.34.23.55s-.08.4-.23.56c-.14.14-.29.22-.48.23,0,0,0,0-.01,0h-.35v-1.58Z"/>
          <rect class="cls-5" x="1179.32" y="61.34" width=".29" height="3.08" rx=".06" ry=".06"/>
          <path class="cls-5" d="M1181.45,64.14h-1.09v-2.74s-.03-.06-.06-.06h-.17s-.06.03-.06.06v2.97s.03.06.06.06h1.32s.06-.03.06-.06v-.17s-.03-.06-.06-.06Z"/>
          <rect class="cls-5" x="1181.87" y="61.34" width=".29" height="3.08" rx=".06" ry=".06"/>
          <path class="cls-5" d="M1183.67,61.31s-.03-.04-.06-.04-.05.02-.06.04l-1.1,3.03s0,.04,0,.05c.01.02.03.03.05.03h.18s.05-.02.06-.04l.4-1.1h.94l.4,1.1s.03.04.06.04h.18s.04,0,.05-.03c.01-.02.01-.04,0-.05l-1.1-3.03ZM1183.61,62l.37,1.01h-.74l.37-1.01Z"/>
          <path class="cls-5" d="M1186.78,62.37c0-.28-.1-.53-.3-.73-.17-.17-.37-.27-.62-.3h-.78s-.06.03-.06.06v2.97s.03.06.06.06h.17s.06-.03.06-.06v-.97h.44s.01,0,.02,0l.64,1s.03.03.05.03h.21s.04-.01.05-.03c.01-.02,0-.04,0-.06l-.64-.99c.15-.05.28-.13.4-.25.2-.2.3-.44.3-.73ZM1185.31,61.63h.44c.21,0,.38.07.52.22.15.15.22.32.22.52s-.07.38-.22.52-.32.22-.52.22h-.44v-1.48Z"/>
          <rect class="cls-5" x="1187.08" y="61.34" width=".29" height="3.08" rx=".06" ry=".06"/>
          <path class="cls-5" d="M1189.98,64.35l-1.1-3.03s-.03-.04-.06-.04-.05.02-.06.04l-1.1,3.03s0,.04,0,.05c.01.02.03.03.05.03h.18s.05-.02.06-.04l.4-1.1h.94l.4,1.1s.03.04.06.04h.18s.04,0,.05-.03c.01-.02.01-.04,0-.05ZM1188.82,62l.37,1.01h-.74l.37-1.01Z"/>
        </g>
        <g>
          <path class="cls-1" d="M1128.97,40.86h-5.72v5.04h4.03c2.19,0,3.58,1.31,3.58,3.33s-1.39,3.33-3.58,3.33h-8.56v11.84h6.49v-6.79h3.77c5.08,0,8.47-3.36,8.47-8.37s-3.4-8.37-8.47-8.37Z"/>
          <path class="cls-5" d="M1118.71,41.08v-.23h9.64v.23c0,2.66-2.16,4.82-4.82,4.82s-4.82-2.16-4.82-4.82"/>
        </g>
      </g>
      <g>
        <path d="M983,62.92c0,4.76-3.11,7.15-7.62,7.15-1.62,0-6.24-.8-6.24-2.97,0-.74.83-1.73,1.6-1.73,1.27,0,2.67,1.24,4.95,1.24,1.93,0,3.36-1.13,3.36-3.14v-.94h-.05c-.83,1.21-2.17,1.87-3.99,1.87-4.15,0-6.11-3.66-6.11-7.59s2.53-7.7,6.52-7.7c1.35,0,2.89.6,3.63,1.82.25-1.05.88-1.65,1.98-1.65,1.16,0,1.98.88,1.98,2.2v11.44ZM975.94,52.74c-2.06,0-3.08,2.15-3.08,3.99,0,2.12,1.02,4.04,3.08,4.04s3.11-1.98,3.11-3.9-.93-4.13-3.11-4.13Z"/>
        <path d="M997.68,61.65c0,1.02,0,2.59-1.9,2.59-1.15,0-1.62-.63-1.9-1.68-1.02,1.21-2.26,1.84-3.77,1.84-3.71,0-6.55-3.16-6.55-7.62s2.92-7.67,6.55-7.67c1.46,0,2.89.58,3.77,1.82.11-.96.94-1.65,1.9-1.65,1.9,0,1.9,1.57,1.9,2.59v9.79ZM990.67,60.77c2.06,0,3.05-2.09,3.05-3.99s-.96-4.04-3.05-4.04-3.14,2.15-3.14,4.04.99,3.99,3.14,3.99Z"/>
        <path d="M998.92,51.48c0-1.32.83-2.2,1.98-2.2,1.02,0,1.68.55,1.82,1.49.96-1.05,2.23-1.65,3.68-1.65,1.65,0,3.05.69,4.1,2.01,1.1-1.27,2.83-2.01,4.18-2.01,3.22,0,5.42,1.87,5.42,5.34v7.59c0,1.32-.82,2.2-1.98,2.2s-1.98-.88-1.98-2.2v-6.9c0-1.6-.88-2.72-2.31-2.72s-2.34,1.13-2.34,2.72v6.9c0,1.32-.82,2.2-1.98,2.2s-1.98-.88-1.98-2.2v-6.9c0-1.6-.88-2.72-2.31-2.72-1.62,0-2.34,1.13-2.34,2.72v6.9c0,1.32-.82,2.2-1.98,2.2s-1.98-.88-1.98-2.2v-10.56Z"/>
        <path d="M1034.95,61.65c0,1.02,0,2.59-1.9,2.59-1.15,0-1.62-.63-1.9-1.68-1.02,1.21-2.26,1.84-3.77,1.84-3.71,0-6.55-3.16-6.55-7.62s2.92-7.67,6.55-7.67c1.46,0,2.89.58,3.77,1.82.11-.96.94-1.65,1.9-1.65,1.9,0,1.9,1.57,1.9,2.59v9.79ZM1027.94,60.77c2.06,0,3.05-2.09,3.05-3.99s-.96-4.04-3.05-4.04-3.14,2.15-3.14,4.04.99,3.99,3.14,3.99Z"/>
        <path d="M963.4,49.3c-4.1,0-7.43,3.33-7.43,7.43s3.33,7.43,7.43,7.43,7.43-3.33,7.43-7.43-3.33-7.43-7.43-7.43ZM961.21,59.47c-.48,0-.86-.39-.86-.86s.39-.86.86-.86.86.39.86.86-.39.86-.86.86ZM961.21,56.02c-.48,0-.86-.39-.86-.86s.39-.86.86-.86.86.39.86.86-.39.86-.86.86ZM965.51,59.47c-.48,0-.86-.39-.86-.86s.39-.86.86-.86.86.39.86.86-.39.86-.86.86ZM965.51,56.02c-.48,0-.86-.39-.86-.86s.39-.86.86-.86.86.39.86.86-.39.86-.86.86Z"/>
        <path class="cls-3" d="M966.14,59.15c-1.25-.15-2.97-.62-4.57-2.23l-.04-.04c-.56-.57-.78-1.1-.67-1.56.15-.59.88-.85.91-.86h0c.15.1.26.25.3.43v.04s-.61.23-.68.53c-.06.26.12.62.53,1.04l.04.04c1.41,1.41,3.1,1.92,4.42,2.07h0c0,.07,0,.15-.02.22-.03.13-.11.25-.21.33h0Z"/>
        <path class="cls-3" d="M960.5,59.08h0c-.1-.1-.16-.24-.16-.38v-.17c1.33-.16,2.75-.59,4.15-1.99l.04-.04c.41-.42.59-.78.53-1.04-.07-.29-.3-.45-.42-.45v-.02c.05-.19.16-.35.31-.47h0s.49.22.64.81c.12.46-.11.98-.67,1.56l-.04.04c-1.61,1.61-3.14,2.01-4.38,2.15Z"/>
        <path d="M941.58,46.61c0-1.27.88-2.12,2.12-2.12h4.57c6.16,0,9.68,3.96,9.68,10.07,0,5.78-3.74,9.52-9.41,9.52h-4.79c-.91,0-2.17-.5-2.17-2.06v-15.4ZM945.71,60.28h2.78c3.55,0,5.17-2.61,5.17-5.91,0-3.52-1.65-6.08-5.45-6.08h-2.5v11.99Z"/>
      </g>
      <g id="Ilustracin_1" data-name="Ilustracin 1">
        <g>
          <polygon points="232.45 45.92 231.38 49.66 236.74 49.66 232.47 64.58 237.05 64.58 241.32 49.66 246.41 49.66 247.48 45.92 232.45 45.92"/>
          <polygon points="149.04 45.91 143.7 64.58 148.46 64.58 153.8 45.91 149.04 45.91"/>
          <g>
            <path d="M139.54,45.91l-9.32,16.29c-.18.31-.48.49-.83.49-.25,0-.48-.09-.67-.25-.2-.18-.31-.43-.31-.71v-15.81h-4.95v12.02c0,3.74,3.04,6.78,6.78,6.78,2.43,0,4.68-1.31,5.88-3.41l8.79-15.38h-5.38Z"/>
            <path d="M173.74,45.91l-9.32,16.29c-.18.31-.48.49-.83.49-.25,0-.48-.09-.67-.25-.2-.18-.31-.43-.31-.71v-15.81h-4.95v12.02c0,3.74,3.04,6.78,6.78,6.78,2.43,0,4.68-1.31,5.88-3.41l8.79-15.38h-5.38Z"/>
            <path d="M191.11,53.35v11.23h4.96v-12.02c0-3.74-3.04-6.78-6.78-6.78-2.43,0-4.68,1.31-5.88,3.41l-8.79,15.38h5.39l9.32-16.29c.18-.31.49-.49.83-.49.54,0,.97.43.97.97v4.57h0Z"/>
            <path d="M219.06,62.24c-.09.32-.37.53-.7.53-.36,0-.67-.26-.72-.62l-1.61-10.84c-.47-3.12-3.19-5.47-6.35-5.47-2.85,0-5.38,1.91-6.17,4.65l-4.04,14.14h5.02l4.66-16.32c.1-.33.39-.55.73-.55.38,0,.7.27.76.65l1.61,10.86c.46,3.1,3.17,5.44,6.31,5.44,2.83,0,5.35-1.9,6.13-4.62l4.05-14.17h-5.02l-4.66,16.32h0Z"/>
          </g>
        </g>
      </g>
      <g>
        <g>
          <path d="M637.7,68.09v-2.32h1.6v.38h-1.16v.58h1.09v.38h-1.09v.61h1.16v.38h-1.6Z"/>
          <path d="M643.64,68.13c-.13,0-.25,0-.37-.03-.12-.02-.23-.04-.33-.08s-.19-.08-.26-.13l.15-.36c.07.05.16.09.24.12.09.03.18.05.27.07.1.01.2.02.3.02.16,0,.28-.03.36-.08.08-.05.12-.13.12-.23,0-.06-.01-.1-.04-.13-.03-.03-.07-.06-.12-.08s-.13-.04-.22-.06l-.38-.07c-.22-.04-.38-.12-.48-.23-.1-.11-.15-.26-.15-.43,0-.14.04-.26.12-.37.08-.1.2-.18.34-.24.14-.06.31-.09.5-.09.11,0,.22,0,.32.03.1.02.19.05.28.08.09.04.16.08.22.14l-.15.36c-.09-.08-.19-.13-.31-.17-.11-.03-.24-.05-.37-.05-.1,0-.19.01-.26.03-.08.02-.14.06-.18.1-.04.04-.06.1-.06.17,0,.08.03.14.08.18.05.04.14.07.28.1l.38.07c.23.04.39.11.5.22.11.11.16.24.16.41,0,.14-.04.27-.12.37-.08.11-.19.19-.33.25-.14.06-.3.09-.49.09Z"/>
          <path d="M648.86,68.13c-.13,0-.25,0-.37-.03-.12-.02-.23-.04-.33-.08s-.19-.08-.26-.13l.15-.36c.07.05.16.09.24.12.09.03.18.05.27.07.1.01.2.02.3.02.16,0,.28-.03.36-.08.08-.05.12-.13.12-.23,0-.06-.01-.1-.04-.13-.03-.03-.07-.06-.12-.08s-.13-.04-.22-.06l-.38-.07c-.22-.04-.38-.12-.48-.23-.1-.11-.15-.26-.15-.43,0-.14.04-.26.12-.37.08-.1.2-.18.34-.24.14-.06.31-.09.5-.09.11,0,.22,0,.32.03.1.02.19.05.28.08.09.04.16.08.22.14l-.15.36c-.09-.08-.19-.13-.31-.17-.11-.03-.24-.05-.37-.05-.1,0-.19.01-.26.03-.08.02-.14.06-.18.1-.04.04-.06.1-.06.17,0,.08.03.14.08.18.05.04.14.07.28.1l.38.07c.23.04.39.11.5.22.11.11.16.24.16.41,0,.14-.04.27-.12.37-.08.11-.19.19-.33.25-.14.06-.3.09-.49.09Z"/>
          <path d="M653.25,68.09v-2.32h1.6v.38h-1.16v.58h1.09v.38h-1.09v.61h1.16v.38h-1.6Z"/>
          <path d="M658.38,68.09v-2.32h.39l1.24,1.64h0v-1.64h.43v2.32h-.42l-1.21-1.62h0v1.62h-.43Z"/>
          <path d="M664.6,68.09v-1.93h-.79v-.39h2.03v.39h-.79v1.93h-.45Z"/>
          <path d="M669.21,68.09v-2.32h.45v2.32h-.45Z"/>
          <path d="M673,68.09l1.05-2.32h.4l1.04,2.32h-.47l-.28-.65.19.16h-1.39l.19-.16-.28.65h-.46ZM674.23,66.24l-.46,1.09-.08-.1h1.1l-.09.1-.45-1.09h-.02Z"/>
          <path d="M678.82,68.09v-2.32h.45v1.93h1.11v.39h-1.57Z"/>
          <path d="M684.58,68.13c-.13,0-.25,0-.37-.03-.12-.02-.23-.04-.33-.08s-.19-.08-.26-.13l.15-.36c.07.05.16.09.24.12.09.03.18.05.27.07.1.01.2.02.3.02.16,0,.28-.03.36-.08.08-.05.12-.13.12-.23,0-.06-.01-.1-.04-.13-.03-.03-.07-.06-.12-.08s-.13-.04-.22-.06l-.38-.07c-.22-.04-.38-.12-.48-.23-.1-.11-.15-.26-.15-.43,0-.14.04-.26.12-.37.08-.1.2-.18.34-.24.14-.06.31-.09.5-.09.11,0,.22,0,.32.03.1.02.19.05.28.08.09.04.16.08.22.14l-.15.36c-.09-.08-.19-.13-.31-.17-.11-.03-.24-.05-.37-.05-.1,0-.19.01-.26.03-.08.02-.14.06-.18.1-.04.04-.06.1-.06.17,0,.08.03.14.08.18.05.04.14.07.28.1l.38.07c.23.04.39.11.5.22.11.11.16.24.16.41,0,.14-.04.27-.12.37-.08.11-.19.19-.33.25-.14.06-.3.09-.49.09Z"/>
        </g>
        <polygon points="634.18 46.79 634.18 61.48 646.33 61.48 646.99 59.28 637.7 59.28 637.7 46.79 634.18 46.79"/>
        <path d="M651.8,47.11h3.52v10.72s0,1.13,1.92,1.45h5.92s1.48-.35,1.94-1.78v-10.4h3.33v9.9s-.31,4.51-4.15,4.51h-8.73s-2.8-.03-3.76-4.02v-10.4Z"/>
        <polygon points="674.64 47.11 678.04 47.11 678.04 53 676.84 54.32 678.04 55.65 678.04 61.53 674.64 61.53 674.64 47.11"/>
        <polygon points="689.36 47.11 685.12 47.11 679.27 54.32 685.51 61.65 689.36 61.65 683.36 54.38 689.36 47.11"/>
      </g>
      <g>
        <g>
          <g>
            <path d="M1244.61,44.95h1.4v7.58c-.12.87-.48,1.6-1.07,2.19-.72.72-1.58,1.08-2.59,1.08s-1.87-.36-2.59-1.07c-.72-.72-1.07-1.58-1.07-2.59v-7.19h1.4v7.19c0,.62.22,1.15.66,1.59.44.44.97.66,1.6.66s1.16-.22,1.6-.66c.44-.44.66-.97.66-1.59v-7.19Z"/>
            <path d="M1251.24,52.27h-1.27v3.44h-1.39v-10.76h3.05c.87.12,1.6.47,2.19,1.07.71.72,1.07,1.58,1.07,2.58s-.36,1.88-1.07,2.6c-.49.49-.87.77-1.13.83l2.39,3.68h-1.69l-2.15-3.44ZM1249.96,46.35v4.52h1.27c.62,0,1.15-.22,1.59-.66.44-.44.66-.98.66-1.6s-.22-1.15-.66-1.59c-.44-.44-.97-.66-1.59-.66h-1.27Z"/>
            <path d="M1259.18,44.95c.62,0,1.16.22,1.6.66s.67.97.67,1.6-.32,1.04-.97,1.19c.47.07,1,.4,1.59,1,.59.6.89,1.42.89,2.48s-.37,1.96-1.11,2.73c-.7.72-1.39,1.09-2.09,1.1h0s-2.76.01-2.76.01v-10.76h2.18ZM1258.39,46.34v1.7h.91c.21-.02.38-.1.53-.24.16-.15.24-.35.24-.6s-.08-.46-.25-.62c-.17-.16-.38-.25-.64-.25h-.79ZM1258.39,49.48v4.84h1.37v-.02c.29-.02.64-.25,1.07-.69.47-.48.71-1.06.71-1.73s-.23-1.22-.7-1.69c-.47-.47-1.03-.7-1.69-.7h-.75Z"/>
            <path d="M1269.12,44.95l3.91,10.76h-1.48l-1.39-3.81h-2.85l-1.38,3.81h-1.49l3.91-10.76h.75ZM1269.66,50.51l-.92-2.52-.91,2.52h1.84Z"/>
            <path d="M1274.93,44.95h1.27l4.44,7.68v-7.68h1.4v10.76h-1.22l-4.5-7.77v7.77h-1.39v-10.76Z"/>
            <path d="M1286.13,44.95v10.76h-1.39v-10.76h1.39Z"/>
            <path d="M1292.84,44.95l3.91,10.76h-1.48l-1.39-3.81h-2.85l-1.38,3.81h-1.49l3.91-10.76h.75ZM1293.38,50.51l-.92-2.52-.91,2.52h1.84Z"/>
          </g>
          <g>
            <path d="M1242.39,59.53c0-.61-.22-1.14-.65-1.57-.36-.36-.8-.58-1.32-.65,0,0,0,0-.01,0h-1.72s-.08.04-.08.08v6.55s.04.08.08.08h.37s.08-.04.08-.08v-2.19h1.03s.05,0,.07,0l1.44,2.23s.04.04.07.04h.45s.06-.02.07-.04c.01-.03.01-.06,0-.08l-1.45-2.23c.34-.1.65-.29.92-.56.43-.43.65-.96.65-1.57ZM1241.85,59.53c0,.46-.17.86-.49,1.19-.33.33-.73.49-1.19.49h-1.03v-3.37h1.03c.46,0,.86.17,1.19.49.33.33.49.73.49,1.19Z"/>
            <path d="M1247.59,57.31h-3.27s-.08.04-.08.08v6.55s.04.08.08.08h3.27s.08-.04.08-.08v-.37s-.04-.08-.08-.08h-2.82v-2.56h2.82s.08-.04.08-.08v-.37s-.04-.08-.08-.08h-2.82v-2.56h2.82s.08-.04.08-.08v-.37s-.04-.08-.08-.08Z"/>
            <path d="M1252,57.22s-.04-.05-.08-.05-.07.02-.08.05l-2.44,6.7s0,.05,0,.08c.02.02.04.04.07.04h.39s.07-.02.08-.05l.89-2.45h2.15l.89,2.45s.04.05.08.05h.39s.05-.01.07-.04c.02-.02.02-.05.01-.08l-2.44-6.7ZM1251.04,60.99l.88-2.42.88,2.42h-1.76Z"/>
            <path d="M1259.25,63.49h-2.45v-6.1s-.04-.08-.08-.08h-.37s-.08.04-.08.08v6.55s.04.08.08.08h2.91s.08-.04.08-.08v-.37s-.04-.08-.08-.08Z"/>
            <path d="M1268.75,57.31h-3.27s-.08.04-.08.08v6.55s.04.08.08.08h3.27s.08-.04.08-.08v-.37s-.04-.08-.08-.08h-2.82v-2.56h2.82s.08-.04.08-.08v-.37s-.04-.08-.08-.08h-2.82v-2.56h2.82s.08-.04.08-.08v-.37s-.04-.08-.08-.08Z"/>
            <path d="M1272.64,59.85c-.32-.15-.57-.31-.75-.49-.18-.18-.27-.4-.27-.66s.09-.48.27-.66c.18-.18.4-.27.66-.27s.48.09.66.27c.1.1.18.22.22.34,0,.02.02.04.04.05.02,0,.04,0,.06,0l.33-.13s.06-.06.05-.1c-.06-.19-.17-.37-.33-.52-.29-.28-.64-.43-1.04-.43s-.76.15-1.04.43c-.28.29-.43.63-.43,1.03s.14.76.43,1.04c.28.28.66.5,1.13.66.38.16.7.37.96.63.29.29.44.64.44,1.05s-.15.77-.44,1.06c-.29.29-.65.44-1.06.44s-.76-.15-1.05-.44c-.25-.25-.39-.55-.43-.88,0-.03-.02-.05-.04-.06-.02-.01-.05-.02-.07,0l-.35.13s-.06.05-.05.09c.06.42.25.79.57,1.1.39.4.87.6,1.43.6s1.04-.2,1.43-.59.59-.88.59-1.43-.2-1.03-.59-1.43c-.36-.36-.82-.64-1.35-.81Z"/>
            <path d="M1279.76,57.31h-3.68s-.08.04-.08.08v.37s.04.08.08.08h1.57v6.1s.04.08.08.08h.37s.08-.04.08-.08v-6.1h1.57s.08-.04.08-.08v-.37s-.04-.08-.08-.08Z"/>
            <path d="M1283.86,57.22s-.04-.05-.08-.05-.07.02-.08.05l-2.44,6.7s0,.05.01.08c.02.02.04.04.07.04h.39s.07-.02.08-.05l.89-2.45h2.15l.89,2.45s.04.05.08.05h.39s.05-.01.07-.04c.02-.02.02-.05.01-.08l-2.43-6.7ZM1282.9,60.99l.88-2.42.88,2.42h-1.76Z"/>
            <path d="M1291.49,57.31h-3.68s-.08.04-.08.08v.37s.04.08.08.08h1.57v6.1s.04.08.08.08h.37s.08-.04.08-.08v-6.1h1.57s.08-.04.08-.08v-.37s-.04-.08-.08-.08Z"/>
            <path d="M1296.75,57.85s.08-.04.08-.08v-.37s-.04-.08-.08-.08h-3.27s-.08.04-.08.08v6.55s.04.08.08.08h3.27s.08-.04.08-.08v-.37s-.04-.08-.08-.08h-2.82v-2.56h2.82s.08-.04.08-.08v-.37s-.04-.08-.08-.08h-2.82v-2.56h2.82Z"/>
          </g>
        </g>
        <path d="M1225.58,38l-5.52,7.17h2.44v.11h-.02v13.8c0,2.68-1.28,4.12-3.61,4.12s-3.58-1.44-3.58-4.12v-6.59c0-1.7-1.38-3.08-3.08-3.08s-3.08,1.38-3.08,3.08v6.88c0,5.24,3.87,8.66,9.74,8.66s9.53-3.2,9.76-8.16h.02v-14.7h2.45l-5.52-7.17Z"/>
      </g>
    </g>
  </g>
</svg>