<?xml version="1.0" encoding="UTF-8"?>
<svg id="Capa_2" data-name="Capa 2" xmlns="http://www.w3.org/2000/svg" viewBox="0 0 32 32">
  <defs>
    <style>
      .cls-1 {
        fill: #586ae8;
        stroke: #586ae8;
        stroke-width: 0.4;
      }

      .cls-2 {
        fill: #fff;
      }
    </style>
  </defs>
  <g id="Capa_1-2" data-name="Capa 1">
    <circle class="cls-2" cx="16" cy="16" r="16"/>
    <g style="transform: translateY(1px);">
      <path class="cls-1" d="M6.93,14.12h2.36c.48.02.78.14.88.38.09.17.13.42.13.75v2.95c0,.29-.13.56-.38.82-.75.78-1.88,1.17-3.38,1.17-1.33,0-2.49-.5-3.47-1.51-.98-1.01-1.47-2.22-1.47-3.64s.5-2.61,1.5-3.56c1-.95,2.18-1.43,3.54-1.43,1.05,0,2.05.35,2.99,1.05.24.18.36.38.36.6s-.1.47-.31.76c-.35.47-.67.71-.95.71-.17,0-.44-.12-.82-.37-.38-.25-.82-.37-1.34-.37-.68,0-1.28.24-1.81.72-.53.48-.79,1.1-.79,1.88s.27,1.43.8,1.97c.54.54,1.14.81,1.82.81.49,0,.93-.08,1.33-.24v-1.46h-1.06c-.28,0-.47-.04-.59-.11-.12-.07-.19-.18-.23-.32-.04-.14-.05-.33-.05-.56s.02-.43.06-.57c.04-.14.11-.24.22-.29.16-.08.38-.12.64-.12Z"/>
      <path class="cls-1" d="M17.52,17.48l.24-.17c.3-.18.52-.27.64-.27.28,0,.58.25.9.75.2.31.29.56.29.75s-.06.34-.18.47c-.12.13-.26.24-.42.34-.16.1-.32.19-.46.28-.15.09-.45.21-.9.35-.46.14-.9.21-1.32.21s-.85-.06-1.29-.17c-.43-.11-.88-.3-1.34-.56-.46-.26-.87-.59-1.24-.97-.37-.38-.67-.87-.9-1.46-.24-.59-.36-1.24-.36-1.94s.12-1.33.35-1.9c.23-.57.53-1.04.89-1.41.36-.37.78-.68,1.24-.93.88-.48,1.76-.72,2.64-.72.42,0,.85.06,1.28.19.43.13.76.26.99.4l.32.19c.16.1.29.18.38.24.23.19.35.4.35.64s-.09.48-.28.74c-.35.48-.66.72-.94.72-.16,0-.39-.1-.68-.29-.38-.3-.88-.46-1.5-.46-.58,0-1.15.2-1.72.6-.27.2-.49.47-.67.83-.18.36-.27.76-.27,1.21s.09.86.27,1.21c.18.36.41.64.68.84.55.39,1.11.59,1.7.59.28,0,.54-.04.78-.11.25-.07.42-.14.53-.21Z"/>
      <path class="cls-1" d="M25.09,10.1c1.32,0,2.47.48,3.45,1.43.97.96,1.46,2.14,1.46,3.56s-.46,2.62-1.39,3.62c-.93,1-2.07,1.49-3.43,1.49s-2.51-.49-3.47-1.47c-.95-.98-1.43-2.15-1.43-3.51,0-.74.13-1.44.4-2.08.27-.65.63-1.19,1.07-1.63.45-.44.96-.78,1.54-1.03.58-.25,1.18-.38,1.8-.38ZM22.65,15.16c0,.8.26,1.44.77,1.94.51.5,1.09.74,1.72.74s1.21-.24,1.72-.72c.51-.48.76-1.13.76-1.94s-.26-1.47-.77-1.96c-.51-.49-1.09-.74-1.72-.74s-1.21.25-1.72.74c-.51.5-.76,1.14-.76,1.94Z"/>
    </g>
  </g>
</svg>